<svg width="877" height="654" viewBox="0 0 877 654" fill="none" xmlns="http://www.w3.org/2000/svg">
<path d="M404.727 526.06C511.562 526.06 598.17 439.453 598.17 332.617C598.17 225.781 511.562 139.174 404.727 139.174C297.891 139.174 211.283 225.781 211.283 332.617C211.283 439.453 297.891 526.06 404.727 526.06Z" fill="#E8EBE6"/>
<path d="M611.064 332.615C611.064 359.712 605.726 386.544 595.358 411.577C584.988 436.612 569.79 459.359 550.629 478.52C531.468 497.68 508.721 512.878 483.686 523.248C458.653 533.617 431.821 538.954 404.724 538.954C377.628 538.954 350.796 533.617 325.762 523.248C300.728 512.878 277.98 497.68 258.82 478.52C239.659 459.359 224.461 436.612 214.091 411.577C203.722 386.544 198.385 359.712 198.385 332.615C198.385 305.518 203.722 278.686 214.091 253.653C224.461 228.618 239.659 205.871 258.82 186.71C277.98 167.55 300.728 152.352 325.762 141.981C350.796 131.612 377.628 126.275 404.724 126.275C431.821 126.275 458.653 131.612 483.686 141.981C508.721 152.352 531.468 167.55 550.629 186.71C569.79 205.871 584.988 228.618 595.358 253.653C605.726 278.686 611.064 305.518 611.064 332.615Z" stroke="#E8EBE6" stroke-width="3.22406"/>
<path d="M405.865 77.4424C406.496 76.8129 406.496 75.7922 405.865 75.1627L395.606 64.9038C394.978 64.2743 393.956 64.2743 393.327 64.9038C392.697 65.5334 392.697 66.554 393.327 67.1835L402.446 76.3026L393.327 85.4216C392.697 86.0511 392.697 87.0717 393.327 87.7014C393.956 88.3309 394.978 88.3309 395.606 87.7014L405.865 77.4424ZM224.625 152.514C248.277 128.864 276.355 110.102 307.256 97.3025L306.023 94.3239C274.73 107.286 246.296 126.284 222.346 150.235L224.625 152.514ZM307.256 97.3025C338.157 84.5026 371.278 77.9146 404.726 77.9146V74.6905C370.854 74.6905 337.316 81.3619 306.023 94.3239L307.256 97.3025Z" fill="#5F7F38"/>
<path d="M659.9 309.729C660.553 310.289 661.615 310.289 662.268 309.729L672.922 300.601C673.576 300.042 673.576 299.133 672.922 298.573C672.269 298.013 671.207 298.013 670.555 298.573L661.084 306.687L651.613 298.573C650.96 298.013 649.899 298.013 649.246 298.573C648.591 299.133 648.591 300.042 649.246 300.601L659.9 309.729ZM581.936 148.481C606.499 169.524 625.982 194.505 639.275 221.997L642.369 220.9C628.907 193.059 609.176 167.761 584.303 146.453L581.936 148.481ZM639.275 221.997C652.568 249.489 659.41 278.956 659.41 308.715H662.758C662.758 278.579 655.829 248.741 642.369 220.9L639.275 221.997Z" fill="#5F7F38"/>
<rect x="416.377" y="83.0605" width="380.353" height="51.3556" rx="9.62918" fill="#5F7F38"/>
<path d="M461.833 121.64L466.9 116.627L465.555 115.282L461.833 118.939L460.283 117.374L458.938 118.745L461.833 121.64ZM444.278 103.708H462.302V101.301H444.278V103.708ZM462.919 125.683C460.915 125.683 459.21 124.98 457.805 123.575C456.4 122.169 455.697 120.465 455.697 118.461C455.697 116.457 456.4 114.752 457.805 113.347C459.21 111.942 460.915 111.239 462.919 111.239C464.923 111.239 466.628 111.942 468.033 113.347C469.438 114.752 470.141 116.457 470.141 118.461C470.141 120.465 469.438 122.169 468.033 123.575C466.628 124.98 464.923 125.683 462.919 125.683ZM439.648 123.8V97.9988C439.648 97.1984 439.932 96.5148 440.499 95.948C441.066 95.3811 441.749 95.0977 442.55 95.0977H464.03C464.83 95.0977 465.514 95.3811 466.081 95.948C466.648 96.5148 466.931 97.1984 466.931 97.9988V108.125C466.546 107.956 466.156 107.815 465.76 107.7C465.364 107.586 464.952 107.499 464.524 107.44V97.9988C464.524 97.8753 464.472 97.7621 464.369 97.6592C464.267 97.5563 464.153 97.5049 464.03 97.5049H442.55C442.426 97.5049 442.313 97.5563 442.21 97.6592C442.107 97.7621 442.056 97.8753 442.056 97.9988V120.053H452.021C452.124 120.687 452.275 121.296 452.473 121.88C452.672 122.465 452.937 123.019 453.268 123.544L453.12 123.692L451.006 121.825L448.722 123.8L446.438 121.825L444.154 123.8L441.871 121.825L439.648 123.8ZM444.278 116.177H452.129C452.199 115.749 452.296 115.337 452.421 114.941C452.545 114.545 452.697 114.154 452.876 113.77H444.278V116.177ZM444.278 109.943H455.842C456.612 109.241 457.484 108.677 458.459 108.251C459.434 107.825 460.473 107.587 461.576 107.535H444.278V109.943Z" fill="white"/>
<path d="M484.005 107.657H492.671V109.703H484.005V107.657ZM484.222 115.144H494.043V117.238H481.814V100.387H493.706V102.482H484.222V115.144ZM502.519 117.383C501.219 117.383 500.056 117.102 499.029 116.54C498.018 115.978 497.223 115.208 496.645 114.229C496.068 113.25 495.779 112.127 495.779 110.859C495.779 109.591 496.068 108.468 496.645 107.489C497.223 106.51 498.018 105.747 499.029 105.202C500.056 104.64 501.219 104.359 502.519 104.359C503.675 104.359 504.702 104.592 505.601 105.057C506.515 105.507 507.221 106.181 507.719 107.079L505.962 108.211C505.544 107.585 505.031 107.128 504.421 106.839C503.827 106.534 503.185 106.381 502.495 106.381C501.661 106.381 500.914 106.566 500.256 106.935C499.598 107.304 499.077 107.826 498.692 108.5C498.306 109.158 498.114 109.944 498.114 110.859C498.114 111.774 498.306 112.568 498.692 113.242C499.077 113.916 499.598 114.438 500.256 114.807C500.914 115.176 501.661 115.361 502.495 115.361C503.185 115.361 503.827 115.216 504.421 114.927C505.031 114.622 505.544 114.157 505.962 113.531L507.719 114.638C507.221 115.521 506.515 116.203 505.601 116.685C504.702 117.15 503.675 117.383 502.519 117.383ZM515.506 117.383C514.222 117.383 513.083 117.102 512.088 116.54C511.093 115.978 510.306 115.208 509.728 114.229C509.151 113.234 508.862 112.111 508.862 110.859C508.862 109.591 509.151 108.468 509.728 107.489C510.306 106.51 511.093 105.747 512.088 105.202C513.083 104.64 514.222 104.359 515.506 104.359C516.774 104.359 517.905 104.64 518.9 105.202C519.911 105.747 520.698 106.51 521.259 107.489C521.837 108.452 522.126 109.575 522.126 110.859C522.126 112.127 521.837 113.25 521.259 114.229C520.698 115.208 519.911 115.978 518.9 116.54C517.905 117.102 516.774 117.383 515.506 117.383ZM515.506 115.361C516.324 115.361 517.055 115.176 517.697 114.807C518.355 114.438 518.868 113.916 519.237 113.242C519.606 112.552 519.791 111.758 519.791 110.859C519.791 109.944 519.606 109.158 519.237 108.5C518.868 107.826 518.355 107.304 517.697 106.935C517.055 106.566 516.324 106.381 515.506 106.381C514.688 106.381 513.957 106.566 513.315 106.935C512.673 107.304 512.16 107.826 511.775 108.5C511.39 109.158 511.197 109.944 511.197 110.859C511.197 111.758 511.39 112.552 511.775 113.242C512.16 113.916 512.673 114.438 513.315 114.807C513.957 115.176 514.688 115.361 515.506 115.361ZM540.801 104.359C541.828 104.359 542.735 104.56 543.521 104.961C544.308 105.362 544.917 105.972 545.351 106.791C545.8 107.609 546.025 108.644 546.025 109.896V117.238H543.714V110.161C543.714 108.925 543.425 107.994 542.847 107.368C542.269 106.742 541.459 106.43 540.416 106.43C539.646 106.43 538.971 106.59 538.394 106.911C537.816 107.232 537.367 107.705 537.046 108.331C536.741 108.957 536.588 109.736 536.588 110.666V117.238H534.277V110.161C534.277 108.925 533.988 107.994 533.411 107.368C532.849 106.742 532.038 106.43 530.979 106.43C530.225 106.43 529.559 106.59 528.981 106.911C528.403 107.232 527.954 107.705 527.633 108.331C527.312 108.957 527.152 109.736 527.152 110.666V117.238H524.841V104.48H527.055V107.874L526.694 107.007C527.095 106.173 527.713 105.523 528.548 105.057C529.382 104.592 530.353 104.359 531.461 104.359C532.68 104.359 533.732 104.664 534.614 105.274C535.497 105.868 536.075 106.775 536.348 107.994L535.409 107.609C535.794 106.63 536.468 105.844 537.431 105.25C538.394 104.656 539.517 104.359 540.801 104.359ZM565.756 104.359C566.783 104.359 567.69 104.56 568.476 104.961C569.263 105.362 569.872 105.972 570.306 106.791C570.755 107.609 570.98 108.644 570.98 109.896V117.238H568.669V110.161C568.669 108.925 568.38 107.994 567.802 107.368C567.224 106.742 566.414 106.43 565.371 106.43C564.601 106.43 563.926 106.59 563.349 106.911C562.771 107.232 562.322 107.705 562.001 108.331C561.696 108.957 561.543 109.736 561.543 110.666V117.238H559.232V110.161C559.232 108.925 558.943 107.994 558.366 107.368C557.804 106.742 556.993 106.43 555.934 106.43C555.18 106.43 554.514 106.59 553.936 106.911C553.358 107.232 552.909 107.705 552.588 108.331C552.267 108.957 552.107 109.736 552.107 110.666V117.238H549.796V104.48H552.01V107.874L551.649 107.007C552.05 106.173 552.668 105.523 553.503 105.057C554.337 104.592 555.308 104.359 556.416 104.359C557.635 104.359 558.687 104.664 559.569 105.274C560.452 105.868 561.03 106.775 561.303 107.994L560.364 107.609C560.749 106.63 561.423 105.844 562.386 105.25C563.349 104.656 564.472 104.359 565.756 104.359ZM580.432 117.383C579.068 117.383 577.864 117.102 576.821 116.54C575.794 115.978 574.991 115.208 574.414 114.229C573.852 113.25 573.571 112.127 573.571 110.859C573.571 109.591 573.844 108.468 574.39 107.489C574.951 106.51 575.714 105.747 576.676 105.202C577.655 104.64 578.755 104.359 579.974 104.359C581.21 104.359 582.302 104.632 583.248 105.178C584.195 105.723 584.933 106.494 585.463 107.489C586.009 108.468 586.282 109.615 586.282 110.931C586.282 111.027 586.274 111.14 586.258 111.268C586.258 111.397 586.249 111.517 586.233 111.629H575.377V109.968H585.03L584.091 110.546C584.107 109.728 583.938 108.997 583.585 108.355C583.232 107.713 582.743 107.216 582.117 106.863C581.507 106.494 580.793 106.309 579.974 106.309C579.172 106.309 578.458 106.494 577.832 106.863C577.206 107.216 576.717 107.721 576.364 108.379C576.01 109.021 575.834 109.76 575.834 110.594V110.979C575.834 111.83 576.027 112.592 576.412 113.266C576.813 113.924 577.367 114.438 578.073 114.807C578.779 115.176 579.589 115.361 580.504 115.361C581.258 115.361 581.94 115.232 582.55 114.975C583.176 114.719 583.722 114.333 584.187 113.82L585.463 115.312C584.885 115.986 584.163 116.5 583.297 116.853C582.446 117.206 581.491 117.383 580.432 117.383ZM589.009 117.238V104.48H591.224V107.946L591.007 107.079C591.36 106.197 591.954 105.523 592.789 105.057C593.623 104.592 594.65 104.359 595.87 104.359V106.598C595.774 106.582 595.677 106.574 595.581 106.574C595.501 106.574 595.421 106.574 595.34 106.574C594.105 106.574 593.126 106.943 592.403 107.681C591.681 108.42 591.32 109.487 591.32 110.883V117.238H589.009ZM603.68 117.383C602.38 117.383 601.217 117.102 600.19 116.54C599.178 115.978 598.384 115.208 597.806 114.229C597.229 113.25 596.94 112.127 596.94 110.859C596.94 109.591 597.229 108.468 597.806 107.489C598.384 106.51 599.178 105.747 600.19 105.202C601.217 104.64 602.38 104.359 603.68 104.359C604.836 104.359 605.863 104.592 606.761 105.057C607.676 105.507 608.382 106.181 608.88 107.079L607.123 108.211C606.705 107.585 606.192 107.128 605.582 106.839C604.988 106.534 604.346 106.381 603.656 106.381C602.822 106.381 602.075 106.566 601.417 106.935C600.759 107.304 600.238 107.826 599.853 108.5C599.467 109.158 599.275 109.944 599.275 110.859C599.275 111.774 599.467 112.568 599.853 113.242C600.238 113.916 600.759 114.438 601.417 114.807C602.075 115.176 602.822 115.361 603.656 115.361C604.346 115.361 604.988 115.216 605.582 114.927C606.192 114.622 606.705 114.157 607.123 113.531L608.88 114.638C608.382 115.521 607.676 116.203 606.761 116.685C605.863 117.15 604.836 117.383 603.68 117.383ZM616.884 117.383C615.519 117.383 614.316 117.102 613.273 116.54C612.246 115.978 611.443 115.208 610.865 114.229C610.304 113.25 610.023 112.127 610.023 110.859C610.023 109.591 610.296 108.468 610.841 107.489C611.403 106.51 612.165 105.747 613.128 105.202C614.107 104.64 615.206 104.359 616.426 104.359C617.662 104.359 618.753 104.632 619.7 105.178C620.647 105.723 621.385 106.494 621.915 107.489C622.46 108.468 622.733 109.615 622.733 110.931C622.733 111.027 622.725 111.14 622.709 111.268C622.709 111.397 622.701 111.517 622.685 111.629H611.828V109.968H621.481L620.543 110.546C620.559 109.728 620.39 108.997 620.037 108.355C619.684 107.713 619.195 107.216 618.569 106.863C617.959 106.494 617.245 106.309 616.426 106.309C615.624 106.309 614.91 106.494 614.284 106.863C613.658 107.216 613.168 107.721 612.815 108.379C612.462 109.021 612.286 109.76 612.286 110.594V110.979C612.286 111.83 612.478 112.592 612.863 113.266C613.265 113.924 613.818 114.438 614.524 114.807C615.231 115.176 616.041 115.361 616.956 115.361C617.71 115.361 618.392 115.232 619.002 114.975C619.628 114.719 620.174 114.333 620.639 113.82L621.915 115.312C621.337 115.986 620.615 116.5 619.748 116.853C618.898 117.206 617.943 117.383 616.884 117.383ZM637.005 117.383C635.705 117.383 634.542 117.102 633.515 116.54C632.504 115.978 631.709 115.208 631.131 114.229C630.554 113.25 630.265 112.127 630.265 110.859C630.265 109.591 630.554 108.468 631.131 107.489C631.709 106.51 632.504 105.747 633.515 105.202C634.542 104.64 635.705 104.359 637.005 104.359C638.161 104.359 639.188 104.592 640.087 105.057C641.001 105.507 641.707 106.181 642.205 107.079L640.448 108.211C640.03 107.585 639.517 107.128 638.907 106.839C638.313 106.534 637.671 106.381 636.981 106.381C636.147 106.381 635.4 106.566 634.742 106.935C634.084 107.304 633.563 107.826 633.178 108.5C632.792 109.158 632.6 109.944 632.6 110.859C632.6 111.774 632.792 112.568 633.178 113.242C633.563 113.916 634.084 114.438 634.742 114.807C635.4 115.176 636.147 115.361 636.981 115.361C637.671 115.361 638.313 115.216 638.907 114.927C639.517 114.622 640.03 114.157 640.448 113.531L642.205 114.638C641.707 115.521 641.001 116.203 640.087 116.685C639.188 117.15 638.161 117.383 637.005 117.383ZM649.992 117.383C648.708 117.383 647.569 117.102 646.574 116.54C645.579 115.978 644.792 115.208 644.214 114.229C643.637 113.234 643.348 112.111 643.348 110.859C643.348 109.591 643.637 108.468 644.214 107.489C644.792 106.51 645.579 105.747 646.574 105.202C647.569 104.64 648.708 104.359 649.992 104.359C651.26 104.359 652.391 104.64 653.386 105.202C654.397 105.747 655.184 106.51 655.745 107.489C656.323 108.452 656.612 109.575 656.612 110.859C656.612 112.127 656.323 113.25 655.745 114.229C655.184 115.208 654.397 115.978 653.386 116.54C652.391 117.102 651.26 117.383 649.992 117.383ZM649.992 115.361C650.81 115.361 651.541 115.176 652.183 114.807C652.841 114.438 653.354 113.916 653.723 113.242C654.092 112.552 654.277 111.758 654.277 110.859C654.277 109.944 654.092 109.158 653.723 108.5C653.354 107.826 652.841 107.304 652.183 106.935C651.541 106.566 650.81 106.381 649.992 106.381C649.173 106.381 648.443 106.566 647.801 106.935C647.159 107.304 646.646 107.826 646.261 108.5C645.875 109.158 645.683 109.944 645.683 110.859C645.683 111.758 645.875 112.552 646.261 113.242C646.646 113.916 647.159 114.438 647.801 114.807C648.443 115.176 649.173 115.361 649.992 115.361ZM666.139 104.359C667.182 104.359 668.097 104.56 668.884 104.961C669.686 105.362 670.312 105.972 670.761 106.791C671.211 107.609 671.435 108.644 671.435 109.896V117.238H669.124V110.161C669.124 108.925 668.819 107.994 668.21 107.368C667.616 106.742 666.773 106.43 665.682 106.43C664.863 106.43 664.149 106.59 663.539 106.911C662.93 107.232 662.456 107.705 662.119 108.331C661.798 108.957 661.638 109.736 661.638 110.666V117.238H659.327V104.48H661.541V107.922L661.18 107.007C661.597 106.173 662.239 105.523 663.106 105.057C663.973 104.592 664.984 104.359 666.139 104.359ZM679.612 117.383C678.328 117.383 677.333 117.038 676.627 116.348C675.921 115.657 675.568 114.67 675.568 113.387V101.687H677.879V113.29C677.879 113.98 678.047 114.51 678.384 114.879C678.737 115.248 679.235 115.433 679.877 115.433C680.599 115.433 681.201 115.232 681.682 114.831L682.404 116.492C682.051 116.797 681.626 117.022 681.129 117.166C680.647 117.311 680.142 117.383 679.612 117.383ZM673.401 106.381V104.48H681.538V106.381H673.401ZM684.717 117.238V104.48H686.932V107.946L686.715 107.079C687.068 106.197 687.662 105.523 688.496 105.057C689.331 104.592 690.358 104.359 691.578 104.359V106.598C691.481 106.582 691.385 106.574 691.289 106.574C691.209 106.574 691.128 106.574 691.048 106.574C689.812 106.574 688.833 106.943 688.111 107.681C687.389 108.42 687.028 109.487 687.028 110.883V117.238H684.717ZM693.945 117.238V104.48H696.256V117.238H693.945ZM695.1 102.024C694.651 102.024 694.274 101.88 693.969 101.591C693.68 101.302 693.535 100.949 693.535 100.532C693.535 100.098 693.68 99.7372 693.969 99.4484C694.274 99.1595 694.651 99.0151 695.1 99.0151C695.549 99.0151 695.919 99.1595 696.207 99.4484C696.512 99.7212 696.665 100.066 696.665 100.484C696.665 100.917 696.52 101.286 696.232 101.591C695.943 101.88 695.566 102.024 695.1 102.024ZM706.951 117.383C705.86 117.383 704.873 117.142 703.99 116.661C703.124 116.163 702.433 115.433 701.92 114.47C701.422 113.507 701.174 112.303 701.174 110.859C701.174 109.415 701.43 108.211 701.944 107.248C702.474 106.285 703.172 105.563 704.038 105.081C704.921 104.6 705.892 104.359 706.951 104.359C708.203 104.359 709.31 104.632 710.273 105.178C711.236 105.723 711.998 106.486 712.56 107.465C713.122 108.428 713.403 109.559 713.403 110.859C713.403 112.159 713.122 113.298 712.56 114.277C711.998 115.256 711.236 116.019 710.273 116.564C709.31 117.11 708.203 117.383 706.951 117.383ZM700.187 117.238V99.3762H702.498V107.874L702.257 110.835L702.401 113.796V117.238H700.187ZM706.759 115.361C707.577 115.361 708.307 115.176 708.949 114.807C709.607 114.438 710.121 113.916 710.49 113.242C710.875 112.552 711.068 111.758 711.068 110.859C711.068 109.944 710.875 109.158 710.49 108.5C710.121 107.826 709.607 107.304 708.949 106.935C708.307 106.566 707.577 106.381 706.759 106.381C705.956 106.381 705.226 106.566 704.568 106.935C703.926 107.304 703.412 107.826 703.027 108.5C702.658 109.158 702.474 109.944 702.474 110.859C702.474 111.758 702.658 112.552 703.027 113.242C703.412 113.916 703.926 114.438 704.568 114.807C705.226 115.176 705.956 115.361 706.759 115.361ZM721.483 117.383C720.391 117.383 719.428 117.182 718.594 116.781C717.775 116.38 717.133 115.77 716.668 114.951C716.219 114.117 715.994 113.074 715.994 111.822V104.48H718.305V111.557C718.305 112.809 718.602 113.748 719.196 114.374C719.806 114.999 720.656 115.312 721.747 115.312C722.55 115.312 723.248 115.152 723.842 114.831C724.436 114.494 724.893 114.013 725.214 113.387C725.535 112.745 725.695 111.974 725.695 111.076V104.48H728.006V117.238H725.816V113.796L726.177 114.711C725.76 115.561 725.134 116.219 724.299 116.685C723.465 117.15 722.526 117.383 721.483 117.383ZM736.306 117.383C735.022 117.383 734.027 117.038 733.321 116.348C732.615 115.657 732.261 114.67 732.261 113.387V101.687H734.572V113.29C734.572 113.98 734.741 114.51 735.078 114.879C735.431 115.248 735.929 115.433 736.57 115.433C737.293 115.433 737.895 115.232 738.376 114.831L739.098 116.492C738.745 116.797 738.32 117.022 737.822 117.166C737.341 117.311 736.835 117.383 736.306 117.383ZM730.095 106.381V104.48H738.232V106.381H730.095ZM741.411 117.238V104.48H743.722V117.238H741.411ZM742.566 102.024C742.117 102.024 741.74 101.88 741.435 101.591C741.146 101.302 741.001 100.949 741.001 100.532C741.001 100.098 741.146 99.7372 741.435 99.4484C741.74 99.1595 742.117 99.0151 742.566 99.0151C743.016 99.0151 743.385 99.1595 743.674 99.4484C743.978 99.7212 744.131 100.066 744.131 100.484C744.131 100.917 743.986 101.286 743.698 101.591C743.409 101.88 743.032 102.024 742.566 102.024ZM753.117 117.383C751.833 117.383 750.694 117.102 749.699 116.54C748.704 115.978 747.918 115.208 747.34 114.229C746.762 113.234 746.473 112.111 746.473 110.859C746.473 109.591 746.762 108.468 747.34 107.489C747.918 106.51 748.704 105.747 749.699 105.202C750.694 104.64 751.833 104.359 753.117 104.359C754.385 104.359 755.517 104.64 756.512 105.202C757.523 105.747 758.309 106.51 758.871 107.489C759.448 108.452 759.737 109.575 759.737 110.859C759.737 112.127 759.448 113.25 758.871 114.229C758.309 115.208 757.523 115.978 756.512 116.54C755.517 117.102 754.385 117.383 753.117 117.383ZM753.117 115.361C753.936 115.361 754.666 115.176 755.308 114.807C755.966 114.438 756.479 113.916 756.849 113.242C757.218 112.552 757.402 111.758 757.402 110.859C757.402 109.944 757.218 109.158 756.849 108.5C756.479 107.826 755.966 107.304 755.308 106.935C754.666 106.566 753.936 106.381 753.117 106.381C752.299 106.381 751.569 106.566 750.927 106.935C750.285 107.304 749.771 107.826 749.386 108.5C749.001 109.158 748.808 109.944 748.808 110.859C748.808 111.758 749.001 112.552 749.386 113.242C749.771 113.916 750.285 114.438 750.927 114.807C751.569 115.176 752.299 115.361 753.117 115.361ZM769.265 104.359C770.308 104.359 771.223 104.56 772.009 104.961C772.811 105.362 773.437 105.972 773.887 106.791C774.336 107.609 774.561 108.644 774.561 109.896V117.238H772.25V110.161C772.25 108.925 771.945 107.994 771.335 107.368C770.741 106.742 769.898 106.43 768.807 106.43C767.989 106.43 767.275 106.59 766.665 106.911C766.055 107.232 765.581 107.705 765.244 108.331C764.923 108.957 764.763 109.736 764.763 110.666V117.238H762.452V104.48H764.667V107.922L764.306 107.007C764.723 106.173 765.365 105.523 766.231 105.057C767.098 104.592 768.109 104.359 769.265 104.359Z" fill="white"/>
<rect x="583.252" y="322.746" width="286.243" height="51.8389" rx="9.62918" fill="#5F7F38"/>
<path d="M607.819 362.304C607.008 362.304 606.322 362.023 605.761 361.462C605.199 360.9 604.918 360.214 604.918 359.403V337.923C604.918 337.112 605.199 336.426 605.761 335.864C606.322 335.302 607.008 335.021 607.819 335.021H632.509C633.32 335.021 634.006 335.302 634.568 335.864C635.129 336.426 635.41 337.112 635.41 337.923V359.403C635.41 360.214 635.129 360.9 634.568 361.462C634.006 362.023 633.32 362.304 632.509 362.304H607.819ZM607.819 359.897H632.509C632.633 359.897 632.746 359.845 632.849 359.743C632.952 359.64 633.003 359.526 633.003 359.403V337.923C633.003 337.799 632.952 337.686 632.849 337.583C632.746 337.48 632.633 337.429 632.509 337.429H607.819C607.696 337.429 607.582 337.48 607.48 337.583C607.377 337.686 607.325 337.799 607.325 337.923V359.403C607.325 359.526 607.377 359.64 607.48 359.743C607.582 359.845 607.696 359.897 607.819 359.897ZM609.331 356.286H616.553V353.879H609.331V356.286ZM624.257 352.906L631.63 345.533L629.914 343.817L624.257 349.515L621.97 347.228L620.294 348.944L624.257 352.906ZM609.331 349.866H616.553V347.459H609.331V349.866ZM609.331 343.447H616.553V341.04H609.331V343.447Z" fill="white"/>
<path d="M648.803 357.166V340.315H655.375C656.851 340.315 658.111 340.548 659.154 341.013C660.197 341.478 661 342.153 661.561 343.035C662.123 343.918 662.404 344.969 662.404 346.189C662.404 347.408 662.123 348.46 661.561 349.342C661 350.209 660.197 350.883 659.154 351.364C658.111 351.83 656.851 352.063 655.375 352.063H650.127L651.21 350.931V357.166H648.803ZM651.21 351.172L650.127 349.968H655.302C656.843 349.968 658.007 349.639 658.793 348.981C659.595 348.323 659.997 347.392 659.997 346.189C659.997 344.985 659.595 344.054 658.793 343.396C658.007 342.738 656.843 342.409 655.302 342.409H650.127L651.21 341.206V351.172ZM664.887 357.166V344.407H667.102V347.874L666.885 347.007C667.238 346.125 667.832 345.451 668.666 344.985C669.501 344.52 670.528 344.287 671.748 344.287V346.526C671.652 346.51 671.555 346.502 671.459 346.502C671.379 346.502 671.298 346.502 671.218 346.502C669.982 346.502 669.003 346.871 668.281 347.609C667.559 348.347 667.198 349.415 667.198 350.811V357.166H664.887ZM679.462 357.31C678.178 357.31 677.038 357.03 676.043 356.468C675.048 355.906 674.262 355.136 673.684 354.157C673.106 353.162 672.818 352.038 672.818 350.787C672.818 349.519 673.106 348.395 673.684 347.416C674.262 346.438 675.048 345.675 676.043 345.13C677.038 344.568 678.178 344.287 679.462 344.287C680.73 344.287 681.861 344.568 682.856 345.13C683.867 345.675 684.653 346.438 685.215 347.416C685.793 348.379 686.082 349.503 686.082 350.787C686.082 352.055 685.793 353.178 685.215 354.157C684.653 355.136 683.867 355.906 682.856 356.468C681.861 357.03 680.73 357.31 679.462 357.31ZM679.462 355.288C680.28 355.288 681.01 355.104 681.652 354.735C682.31 354.366 682.824 353.844 683.193 353.17C683.562 352.48 683.747 351.685 683.747 350.787C683.747 349.872 683.562 349.086 683.193 348.428C682.824 347.753 682.31 347.232 681.652 346.863C681.01 346.494 680.28 346.309 679.462 346.309C678.643 346.309 677.913 346.494 677.271 346.863C676.629 347.232 676.116 347.753 675.73 348.428C675.345 349.086 675.153 349.872 675.153 350.787C675.153 351.685 675.345 352.48 675.73 353.17C676.116 353.844 676.629 354.366 677.271 354.735C677.913 355.104 678.643 355.288 679.462 355.288ZM687.159 361.981C686.63 361.981 686.124 361.916 685.643 361.788C685.145 361.66 684.728 361.467 684.391 361.21L685.137 359.429C685.619 359.83 686.245 360.031 687.015 360.031C687.625 360.031 688.09 359.838 688.411 359.453C688.748 359.084 688.917 358.53 688.917 357.792V344.407H691.228V357.744C691.228 359.044 690.875 360.071 690.169 360.825C689.478 361.595 688.475 361.981 687.159 361.981ZM690.072 341.952C689.623 341.952 689.246 341.807 688.941 341.519C688.652 341.23 688.507 340.877 688.507 340.459C688.507 340.026 688.652 339.665 688.941 339.376C689.246 339.087 689.623 338.943 690.072 338.943C690.522 338.943 690.891 339.087 691.18 339.376C691.484 339.649 691.637 339.994 691.637 340.411C691.637 340.845 691.493 341.214 691.204 341.519C690.915 341.807 690.538 341.952 690.072 341.952ZM700.837 357.31C699.473 357.31 698.269 357.03 697.226 356.468C696.199 355.906 695.397 355.136 694.819 354.157C694.257 353.178 693.976 352.055 693.976 350.787C693.976 349.519 694.249 348.395 694.795 347.416C695.357 346.438 696.119 345.675 697.082 345.13C698.061 344.568 699.16 344.287 700.38 344.287C701.616 344.287 702.707 344.56 703.654 345.105C704.601 345.651 705.339 346.421 705.868 347.416C706.414 348.395 706.687 349.543 706.687 350.859C706.687 350.955 706.679 351.068 706.663 351.196C706.663 351.324 706.655 351.445 706.639 351.557H695.782V349.896H705.435L704.496 350.474C704.512 349.655 704.344 348.925 703.991 348.283C703.638 347.641 703.148 347.144 702.522 346.791C701.912 346.421 701.198 346.237 700.38 346.237C699.577 346.237 698.863 346.421 698.237 346.791C697.611 347.144 697.122 347.649 696.769 348.307C696.416 348.949 696.239 349.687 696.239 350.522V350.907C696.239 351.758 696.432 352.52 696.817 353.194C697.218 353.852 697.772 354.366 698.478 354.735C699.184 355.104 699.995 355.288 700.909 355.288C701.664 355.288 702.346 355.16 702.956 354.903C703.581 354.646 704.127 354.261 704.593 353.748L705.868 355.24C705.291 355.914 704.568 356.428 703.702 356.781C702.851 357.134 701.896 357.31 700.837 357.31ZM714.975 357.31C713.675 357.31 712.512 357.03 711.485 356.468C710.474 355.906 709.679 355.136 709.101 354.157C708.524 353.178 708.235 352.055 708.235 350.787C708.235 349.519 708.524 348.395 709.101 347.416C709.679 346.438 710.474 345.675 711.485 345.13C712.512 344.568 713.675 344.287 714.975 344.287C716.131 344.287 717.158 344.52 718.057 344.985C718.971 345.434 719.678 346.109 720.175 347.007L718.418 348.139C718 347.513 717.487 347.055 716.877 346.767C716.283 346.462 715.641 346.309 714.951 346.309C714.117 346.309 713.37 346.494 712.712 346.863C712.054 347.232 711.533 347.753 711.148 348.428C710.763 349.086 710.57 349.872 710.57 350.787C710.57 351.701 710.763 352.496 711.148 353.17C711.533 353.844 712.054 354.366 712.712 354.735C713.37 355.104 714.117 355.288 714.951 355.288C715.641 355.288 716.283 355.144 716.877 354.855C717.487 354.55 718 354.085 718.418 353.459L720.175 354.566C719.678 355.449 718.971 356.131 718.057 356.612C717.158 357.078 716.131 357.31 714.975 357.31ZM727.231 357.31C725.948 357.31 724.953 356.965 724.246 356.275C723.54 355.585 723.187 354.598 723.187 353.314V341.615H725.498V353.218C725.498 353.908 725.667 354.438 726.004 354.807C726.357 355.176 726.854 355.361 727.496 355.361C728.218 355.361 728.82 355.16 729.302 354.759L730.024 356.42C729.671 356.725 729.246 356.949 728.748 357.094C728.267 357.238 727.761 357.31 727.231 357.31ZM721.021 346.309V344.407H729.157V346.309H721.021ZM746.24 357.166V354.47L746.119 353.964V349.366C746.119 348.387 745.831 347.633 745.253 347.104C744.691 346.558 743.841 346.285 742.701 346.285C741.947 346.285 741.209 346.413 740.486 346.67C739.764 346.911 739.154 347.24 738.657 347.657L737.694 345.924C738.352 345.394 739.138 344.993 740.053 344.72C740.984 344.431 741.955 344.287 742.966 344.287C744.715 344.287 746.063 344.712 747.01 345.563C747.957 346.413 748.43 347.713 748.43 349.463V357.166H746.24ZM742.051 357.31C741.104 357.31 740.27 357.15 739.548 356.829C738.841 356.508 738.296 356.067 737.911 355.505C737.525 354.927 737.333 354.277 737.333 353.555C737.333 352.865 737.493 352.239 737.814 351.677C738.151 351.116 738.689 350.666 739.427 350.329C740.181 349.992 741.193 349.824 742.46 349.824H746.505V351.485H742.557C741.401 351.485 740.623 351.677 740.222 352.063C739.82 352.448 739.62 352.913 739.62 353.459C739.62 354.085 739.869 354.59 740.366 354.975C740.864 355.344 741.554 355.529 742.436 355.529C743.303 355.529 744.057 355.336 744.699 354.951C745.357 354.566 745.831 354.004 746.119 353.266L746.577 354.855C746.272 355.609 745.734 356.211 744.964 356.66C744.194 357.094 743.223 357.31 742.051 357.31ZM752.226 357.166V339.304H754.537V357.166H752.226ZM758.468 357.166V339.304H760.779V357.166H758.468ZM770.174 357.31C768.89 357.31 767.751 357.03 766.756 356.468C765.761 355.906 764.975 355.136 764.397 354.157C763.819 353.162 763.53 352.038 763.53 350.787C763.53 349.519 763.819 348.395 764.397 347.416C764.975 346.438 765.761 345.675 766.756 345.13C767.751 344.568 768.89 344.287 770.174 344.287C771.442 344.287 772.574 344.568 773.569 345.13C774.58 345.675 775.366 346.438 775.928 347.416C776.506 348.379 776.794 349.503 776.794 350.787C776.794 352.055 776.506 353.178 775.928 354.157C775.366 355.136 774.58 355.906 773.569 356.468C772.574 357.03 771.442 357.31 770.174 357.31ZM770.174 355.288C770.993 355.288 771.723 355.104 772.365 354.735C773.023 354.366 773.537 353.844 773.906 353.17C774.275 352.48 774.459 351.685 774.459 350.787C774.459 349.872 774.275 349.086 773.906 348.428C773.537 347.753 773.023 347.232 772.365 346.863C771.723 346.494 770.993 346.309 770.174 346.309C769.356 346.309 768.626 346.494 767.984 346.863C767.342 347.232 766.828 347.753 766.443 348.428C766.058 349.086 765.865 349.872 765.865 350.787C765.865 351.685 766.058 352.48 766.443 353.17C766.828 353.844 767.342 354.366 767.984 354.735C768.626 355.104 769.356 355.288 770.174 355.288ZM785.07 357.31C783.77 357.31 782.606 357.03 781.579 356.468C780.568 355.906 779.774 355.136 779.196 354.157C778.618 353.178 778.329 352.055 778.329 350.787C778.329 349.519 778.618 348.395 779.196 347.416C779.774 346.438 780.568 345.675 781.579 345.13C782.606 344.568 783.77 344.287 785.07 344.287C786.225 344.287 787.253 344.52 788.151 344.985C789.066 345.434 789.772 346.109 790.27 347.007L788.512 348.139C788.095 347.513 787.582 347.055 786.972 346.767C786.378 346.462 785.736 346.309 785.046 346.309C784.211 346.309 783.465 346.494 782.807 346.863C782.149 347.232 781.627 347.753 781.242 348.428C780.857 349.086 780.665 349.872 780.665 350.787C780.665 351.701 780.857 352.496 781.242 353.17C781.627 353.844 782.149 354.366 782.807 354.735C783.465 355.104 784.211 355.288 785.046 355.288C785.736 355.288 786.378 355.144 786.972 354.855C787.582 354.55 788.095 354.085 788.512 353.459L790.27 354.566C789.772 355.449 789.066 356.131 788.151 356.612C787.253 357.078 786.225 357.31 785.07 357.31ZM800.7 357.166V354.47L800.58 353.964V349.366C800.58 348.387 800.291 347.633 799.713 347.104C799.151 346.558 798.301 346.285 797.161 346.285C796.407 346.285 795.669 346.413 794.947 346.67C794.225 346.911 793.615 347.24 793.117 347.657L792.154 345.924C792.812 345.394 793.599 344.993 794.513 344.72C795.444 344.431 796.415 344.287 797.426 344.287C799.176 344.287 800.524 344.712 801.471 345.563C802.417 346.413 802.891 347.713 802.891 349.463V357.166H800.7ZM796.511 357.31C795.565 357.31 794.73 357.15 794.008 356.829C793.302 356.508 792.756 356.067 792.371 355.505C791.986 354.927 791.793 354.277 791.793 353.555C791.793 352.865 791.954 352.239 792.275 351.677C792.612 351.116 793.149 350.666 793.888 350.329C794.642 349.992 795.653 349.824 796.921 349.824H800.965V351.485H797.017C795.862 351.485 795.083 351.677 794.682 352.063C794.281 352.448 794.08 352.913 794.08 353.459C794.08 354.085 794.329 354.59 794.826 354.975C795.324 355.344 796.014 355.529 796.897 355.529C797.763 355.529 798.518 355.336 799.16 354.951C799.818 354.566 800.291 354.004 800.58 353.266L801.037 354.855C800.732 355.609 800.195 356.211 799.424 356.66C798.654 357.094 797.683 357.31 796.511 357.31ZM811.067 357.31C809.783 357.31 808.788 356.965 808.082 356.275C807.376 355.585 807.023 354.598 807.023 353.314V341.615H809.334V353.218C809.334 353.908 809.503 354.438 809.84 354.807C810.193 355.176 810.69 355.361 811.332 355.361C812.054 355.361 812.656 355.16 813.138 354.759L813.86 356.42C813.507 356.725 813.081 356.949 812.584 357.094C812.103 357.238 811.597 357.31 811.067 357.31ZM804.857 346.309V344.407H812.993V346.309H804.857ZM816.172 357.166V344.407H818.483V357.166H816.172ZM817.328 341.952C816.878 341.952 816.501 341.807 816.196 341.519C815.908 341.23 815.763 340.877 815.763 340.459C815.763 340.026 815.908 339.665 816.196 339.376C816.501 339.087 816.878 338.943 817.328 338.943C817.777 338.943 818.146 339.087 818.435 339.376C818.74 339.649 818.893 339.994 818.893 340.411C818.893 340.845 818.748 341.214 818.459 341.519C818.17 341.807 817.793 341.952 817.328 341.952ZM827.879 357.31C826.595 357.31 825.456 357.03 824.461 356.468C823.466 355.906 822.679 355.136 822.101 354.157C821.524 353.162 821.235 352.038 821.235 350.787C821.235 349.519 821.524 348.395 822.101 347.416C822.679 346.438 823.466 345.675 824.461 345.13C825.456 344.568 826.595 344.287 827.879 344.287C829.147 344.287 830.278 344.568 831.273 345.13C832.284 345.675 833.071 346.438 833.632 347.416C834.21 348.379 834.499 349.503 834.499 350.787C834.499 352.055 834.21 353.178 833.632 354.157C833.071 355.136 832.284 355.906 831.273 356.468C830.278 357.03 829.147 357.31 827.879 357.31ZM827.879 355.288C828.697 355.288 829.428 355.104 830.07 354.735C830.728 354.366 831.241 353.844 831.61 353.17C831.979 352.48 832.164 351.685 832.164 350.787C832.164 349.872 831.979 349.086 831.61 348.428C831.241 347.753 830.728 347.232 830.07 346.863C829.428 346.494 828.697 346.309 827.879 346.309C827.06 346.309 826.33 346.494 825.688 346.863C825.046 347.232 824.533 347.753 824.148 348.428C823.762 349.086 823.57 349.872 823.57 350.787C823.57 351.685 823.762 352.48 824.148 353.17C824.533 353.844 825.046 354.366 825.688 354.735C826.33 355.104 827.06 355.288 827.879 355.288ZM844.026 344.287C845.069 344.287 845.984 344.488 846.771 344.889C847.573 345.29 848.199 345.9 848.648 346.718C849.098 347.537 849.322 348.572 849.322 349.824V357.166H847.011V350.089C847.011 348.853 846.706 347.922 846.097 347.296C845.503 346.67 844.66 346.357 843.569 346.357C842.75 346.357 842.036 346.518 841.426 346.839C840.817 347.16 840.343 347.633 840.006 348.259C839.685 348.885 839.525 349.663 839.525 350.594V357.166H837.214V344.407H839.428V347.85L839.067 346.935C839.484 346.1 840.126 345.451 840.993 344.985C841.86 344.52 842.871 344.287 844.026 344.287Z" fill="white"/>
<rect x="428.297" y="507.305" width="230.243" height="51.8389" rx="9.62918" fill="#5F7F38"/>
<path d="M450.055 542.561L448.096 541.138L455.626 529.086L460.441 534.703L466.829 524.333L470.662 530.086C470.202 530.123 469.769 530.186 469.365 530.276C468.96 530.365 468.558 530.486 468.156 530.639L466.919 528.79L460.79 538.762L455.935 533.104L450.055 542.561ZM480.576 550.304L475.314 545.073C474.809 545.437 474.253 545.713 473.644 545.9C473.035 546.087 472.403 546.181 471.749 546.181C469.959 546.181 468.441 545.559 467.197 544.314C465.952 543.069 465.329 541.552 465.329 539.762C465.329 537.972 465.952 536.454 467.197 535.209C468.441 533.965 469.959 533.342 471.749 533.342C473.539 533.342 475.056 533.965 476.301 535.209C477.546 536.454 478.168 537.972 478.168 539.762C478.168 540.426 478.072 541.066 477.88 541.68C477.687 542.294 477.404 542.861 477.029 543.382L482.292 548.588L480.576 550.304ZM471.749 543.774C472.872 543.774 473.822 543.386 474.598 542.61C475.373 541.835 475.761 540.885 475.761 539.762C475.761 538.638 475.373 537.689 474.598 536.913C473.822 536.137 472.872 535.749 471.749 535.749C470.625 535.749 469.676 536.137 468.9 536.913C468.125 537.689 467.737 538.638 467.737 539.762C467.737 540.885 468.125 541.835 468.9 542.61C469.676 543.386 470.625 543.774 471.749 543.774ZM475.011 530.657C474.626 530.505 474.232 530.38 473.828 530.282C473.423 530.184 473.004 530.122 472.57 530.095L480.363 517.744L482.322 519.167L475.011 530.657Z" fill="white"/>
<path d="M498.44 541.725L491.026 524.874H493.626L500.438 540.425H498.946L505.807 524.874H508.214L500.824 541.725H498.44ZM514.262 541.869C512.898 541.869 511.694 541.588 510.651 541.026C509.624 540.465 508.821 539.694 508.243 538.715C507.682 537.737 507.401 536.613 507.401 535.345C507.401 534.077 507.674 532.954 508.219 531.975C508.781 530.996 509.543 530.234 510.506 529.688C511.485 529.126 512.585 528.846 513.804 528.846C515.04 528.846 516.131 529.118 517.078 529.664C518.025 530.21 518.763 530.98 519.293 531.975C519.839 532.954 520.111 534.102 520.111 535.417C520.111 535.514 520.103 535.626 520.087 535.755C520.087 535.883 520.079 536.003 520.063 536.116H509.206V534.455H518.86L517.921 535.032C517.937 534.214 517.768 533.484 517.415 532.842C517.062 532.2 516.573 531.702 515.947 531.349C515.337 530.98 514.623 530.795 513.804 530.795C513.002 530.795 512.288 530.98 511.662 531.349C511.036 531.702 510.546 532.208 510.193 532.866C509.84 533.508 509.664 534.246 509.664 535.08V535.466C509.664 536.316 509.856 537.079 510.242 537.753C510.643 538.411 511.196 538.924 511.903 539.293C512.609 539.662 513.419 539.847 514.334 539.847C515.088 539.847 515.77 539.719 516.38 539.462C517.006 539.205 517.552 538.82 518.017 538.306L519.293 539.799C518.715 540.473 517.993 540.986 517.126 541.339C516.276 541.693 515.321 541.869 514.262 541.869ZM522.839 541.725V528.966H525.054V532.432L524.837 531.566C525.19 530.683 525.784 530.009 526.618 529.544C527.453 529.078 528.48 528.846 529.7 528.846V531.084C529.604 531.068 529.507 531.06 529.411 531.06C529.331 531.06 529.25 531.06 529.17 531.06C527.934 531.06 526.955 531.429 526.233 532.168C525.511 532.906 525.15 533.973 525.15 535.369V541.725H522.839ZM532.067 541.725V528.966H534.378V541.725H532.067ZM533.222 526.511C532.773 526.511 532.396 526.366 532.091 526.077C531.802 525.788 531.657 525.435 531.657 525.018C531.657 524.585 531.802 524.224 532.091 523.935C532.396 523.646 532.773 523.501 533.222 523.501C533.672 523.501 534.041 523.646 534.33 523.935C534.634 524.208 534.787 524.553 534.787 524.97C534.787 525.403 534.642 525.772 534.354 526.077C534.065 526.366 533.688 526.511 533.222 526.511ZM538.646 541.725V527.835C538.646 526.583 539.007 525.588 539.729 524.849C540.467 524.095 541.51 523.718 542.859 523.718C543.356 523.718 543.829 523.782 544.279 523.911C544.744 524.023 545.137 524.208 545.458 524.464L544.76 526.222C544.52 526.029 544.247 525.885 543.942 525.788C543.637 525.676 543.316 525.62 542.979 525.62C542.305 525.62 541.791 525.812 541.438 526.198C541.085 526.567 540.909 527.12 540.909 527.859V529.568L540.957 530.627V541.725H538.646ZM536.479 530.868V528.966H544.616V530.868H536.479ZM546.806 541.725V528.966H549.117V541.725H546.806ZM547.962 526.511C547.513 526.511 547.135 526.366 546.831 526.077C546.542 525.788 546.397 525.435 546.397 525.018C546.397 524.585 546.542 524.224 546.831 523.935C547.135 523.646 547.513 523.501 547.962 523.501C548.411 523.501 548.78 523.646 549.069 523.935C549.374 524.208 549.527 524.553 549.527 524.97C549.527 525.403 549.382 525.772 549.093 526.077C548.805 526.366 548.427 526.511 547.962 526.511ZM558.719 541.869C557.354 541.869 556.151 541.588 555.108 541.026C554.081 540.465 553.278 539.694 552.7 538.715C552.139 537.737 551.858 536.613 551.858 535.345C551.858 534.077 552.131 532.954 552.676 531.975C553.238 530.996 554 530.234 554.963 529.688C555.942 529.126 557.042 528.846 558.261 528.846C559.497 528.846 560.588 529.118 561.535 529.664C562.482 530.21 563.22 530.98 563.75 531.975C564.296 532.954 564.568 534.102 564.568 535.417C564.568 535.514 564.56 535.626 564.544 535.755C564.544 535.883 564.536 536.003 564.52 536.116H553.663V534.455H563.317L562.378 535.032C562.394 534.214 562.225 533.484 561.872 532.842C561.519 532.2 561.03 531.702 560.404 531.349C559.794 530.98 559.08 530.795 558.261 530.795C557.459 530.795 556.745 530.98 556.119 531.349C555.493 531.702 555.003 532.208 554.65 532.866C554.297 533.508 554.121 534.246 554.121 535.08V535.466C554.121 536.316 554.313 537.079 554.698 537.753C555.1 538.411 555.653 538.924 556.359 539.293C557.066 539.662 557.876 539.847 558.791 539.847C559.545 539.847 560.227 539.719 560.837 539.462C561.463 539.205 562.009 538.82 562.474 538.306L563.75 539.799C563.172 540.473 562.45 540.986 561.583 541.339C560.733 541.693 559.778 541.869 558.719 541.869ZM572.568 541.869C571.332 541.869 570.225 541.596 569.246 541.051C568.283 540.505 567.521 539.743 566.959 538.764C566.397 537.785 566.116 536.645 566.116 535.345C566.116 534.045 566.397 532.914 566.959 531.951C567.521 530.972 568.283 530.21 569.246 529.664C570.225 529.118 571.332 528.846 572.568 528.846C573.643 528.846 574.614 529.086 575.481 529.568C576.347 530.049 577.037 530.771 577.551 531.734C578.081 532.697 578.345 533.901 578.345 535.345C578.345 536.79 578.089 537.993 577.575 538.956C577.078 539.919 576.396 540.649 575.529 541.147C574.662 541.628 573.675 541.869 572.568 541.869ZM572.76 539.847C573.563 539.847 574.285 539.662 574.927 539.293C575.585 538.924 576.099 538.403 576.468 537.728C576.853 537.038 577.045 536.244 577.045 535.345C577.045 534.431 576.853 533.644 576.468 532.986C576.099 532.312 575.585 531.791 574.927 531.421C574.285 531.052 573.563 530.868 572.76 530.868C571.942 530.868 571.212 531.052 570.57 531.421C569.928 531.791 569.414 532.312 569.029 532.986C568.644 533.644 568.451 534.431 568.451 535.345C568.451 536.244 568.644 537.038 569.029 537.728C569.414 538.403 569.928 538.924 570.57 539.293C571.212 539.662 571.942 539.847 572.76 539.847ZM577.118 541.725V538.282L577.262 535.321L577.021 532.36V523.862H579.332V541.725H577.118ZM594.479 541.869C593.243 541.869 592.136 541.596 591.157 541.051C590.194 540.505 589.432 539.743 588.87 538.764C588.308 537.785 588.027 536.645 588.027 535.345C588.027 534.045 588.308 532.914 588.87 531.951C589.432 530.972 590.194 530.21 591.157 529.664C592.136 529.118 593.243 528.846 594.479 528.846C595.554 528.846 596.525 529.086 597.392 529.568C598.258 530.049 598.949 530.771 599.462 531.734C599.992 532.697 600.256 533.901 600.256 535.345C600.256 536.79 600 537.993 599.486 538.956C598.989 539.919 598.307 540.649 597.44 541.147C596.573 541.628 595.586 541.869 594.479 541.869ZM594.672 539.847C595.474 539.847 596.196 539.662 596.838 539.293C597.496 538.924 598.01 538.403 598.379 537.728C598.764 537.038 598.957 536.244 598.957 535.345C598.957 534.431 598.764 533.644 598.379 532.986C598.01 532.312 597.496 531.791 596.838 531.421C596.196 531.052 595.474 530.868 594.672 530.868C593.853 530.868 593.123 531.052 592.481 531.421C591.839 531.791 591.325 532.312 590.94 532.986C590.555 533.644 590.363 534.431 590.363 535.345C590.363 536.244 590.555 537.038 590.94 537.728C591.325 538.403 591.839 538.924 592.481 539.293C593.123 539.662 593.853 539.847 594.672 539.847ZM599.029 541.725V538.282L599.173 535.321L598.932 532.36V523.862H601.243V541.725H599.029ZM613.055 541.725V539.028L612.934 538.523V533.925C612.934 532.946 612.645 532.192 612.068 531.662C611.506 531.116 610.655 530.844 609.516 530.844C608.762 530.844 608.023 530.972 607.301 531.229C606.579 531.47 605.969 531.799 605.472 532.216L604.509 530.483C605.167 529.953 605.953 529.552 606.868 529.279C607.799 528.99 608.77 528.846 609.781 528.846C611.53 528.846 612.878 529.271 613.825 530.121C614.772 530.972 615.245 532.272 615.245 534.021V541.725H613.055ZM608.866 541.869C607.919 541.869 607.085 541.709 606.362 541.388C605.656 541.067 605.111 540.625 604.725 540.064C604.34 539.486 604.148 538.836 604.148 538.114C604.148 537.424 604.308 536.798 604.629 536.236C604.966 535.674 605.504 535.225 606.242 534.888C606.996 534.551 608.007 534.382 609.275 534.382H613.319V536.043H609.371C608.216 536.043 607.438 536.236 607.036 536.621C606.635 537.006 606.435 537.472 606.435 538.017C606.435 538.643 606.683 539.149 607.181 539.534C607.678 539.903 608.368 540.088 609.251 540.088C610.118 540.088 610.872 539.895 611.514 539.51C612.172 539.125 612.645 538.563 612.934 537.825L613.392 539.414C613.087 540.168 612.549 540.77 611.779 541.219C611.008 541.652 610.038 541.869 608.866 541.869ZM623.422 541.869C622.138 541.869 621.143 541.524 620.437 540.834C619.731 540.144 619.378 539.157 619.378 537.873V526.173H621.689V537.777C621.689 538.467 621.857 538.996 622.194 539.365C622.547 539.735 623.045 539.919 623.687 539.919C624.409 539.919 625.011 539.719 625.492 539.317L626.214 540.978C625.861 541.283 625.436 541.508 624.938 541.652C624.457 541.797 623.951 541.869 623.422 541.869ZM617.211 530.868V528.966H625.348V530.868H617.211ZM636.447 541.725V539.028L636.326 538.523V533.925C636.326 532.946 636.038 532.192 635.46 531.662C634.898 531.116 634.048 530.844 632.908 530.844C632.154 530.844 631.416 530.972 630.693 531.229C629.971 531.47 629.361 531.799 628.864 532.216L627.901 530.483C628.559 529.953 629.345 529.552 630.26 529.279C631.191 528.99 632.162 528.846 633.173 528.846C634.922 528.846 636.27 529.271 637.217 530.121C638.164 530.972 638.637 532.272 638.637 534.021V541.725H636.447ZM632.258 541.869C631.311 541.869 630.477 541.709 629.755 541.388C629.048 541.067 628.503 540.625 628.118 540.064C627.732 539.486 627.54 538.836 627.54 538.114C627.54 537.424 627.7 536.798 628.021 536.236C628.358 535.674 628.896 535.225 629.634 534.888C630.388 534.551 631.399 534.382 632.667 534.382H636.712V536.043H632.764C631.608 536.043 630.83 536.236 630.429 536.621C630.027 537.006 629.827 537.472 629.827 538.017C629.827 538.643 630.075 539.149 630.573 539.534C631.07 539.903 631.761 540.088 632.643 540.088C633.51 540.088 634.264 539.895 634.906 539.51C635.564 539.125 636.038 538.563 636.326 537.825L636.784 539.414C636.479 540.168 635.941 540.77 635.171 541.219C634.401 541.652 633.43 541.869 632.258 541.869Z" fill="white"/>
<rect x="8.72266" y="446.32" width="294.243" height="51.8389" rx="9.62918" fill="#5F7F38"/>
<path d="M48.4437 473.38C47.3224 473.38 46.3734 472.992 45.5967 472.215C44.82 471.438 44.4317 470.489 44.4317 469.368C44.4317 468.246 44.82 467.297 45.5967 466.521C46.3734 465.744 47.3224 465.356 48.4437 465.356C49.5651 465.356 50.5141 465.744 51.2908 466.521C52.0675 467.297 52.4559 468.246 52.4559 469.368C52.4559 470.489 52.0675 471.438 51.2908 472.215C50.5141 472.992 49.5651 473.38 48.4437 473.38ZM37.8579 478.349C37.0601 478.349 36.3771 478.065 35.809 477.497C35.2408 476.928 34.9568 476.245 34.9568 475.448V463.288C34.9568 462.49 35.2408 461.807 35.809 461.239C36.3771 460.671 37.0601 460.387 37.8579 460.387H59.0296C59.8274 460.387 60.5104 460.671 61.0785 461.239C61.6466 461.807 61.9307 462.49 61.9307 463.288V475.448C61.9307 476.245 61.6466 476.928 61.0785 477.497C60.5104 478.065 59.8274 478.349 59.0296 478.349H37.8579ZM40.2651 475.942H56.6224C56.6224 475.141 56.9065 474.458 57.4746 473.891C58.0427 473.324 58.7257 473.04 59.5235 473.04V465.695C58.7231 465.695 58.0395 465.411 57.4727 464.843C56.9058 464.275 56.6224 463.592 56.6224 462.794H40.2651C40.2651 463.594 39.981 464.278 39.4129 464.845C38.8448 465.412 38.1618 465.695 37.364 465.695V473.04C38.1644 473.04 38.848 473.324 39.4149 473.893C39.9817 474.461 40.2651 475.144 40.2651 475.942ZM57.147 483.966H32.2409C31.4431 483.966 30.7601 483.682 30.192 483.114C29.6239 482.545 29.3398 481.862 29.3398 481.065V465.17H31.7471V481.065C31.7471 481.188 31.7985 481.301 31.9014 481.404C32.0043 481.507 32.1174 481.558 32.2409 481.558H57.147V483.966ZM37.8579 475.942H37.364V462.794H37.8579C37.7241 462.794 37.6084 462.843 37.5106 462.941C37.4129 463.038 37.364 463.154 37.364 463.288V475.448C37.364 475.581 37.4129 475.697 37.5106 475.795C37.6084 475.893 37.7241 475.942 37.8579 475.942Z" fill="white"/>
<path d="M74.1246 480.74V463.889H80.6965C82.173 463.889 83.4328 464.122 84.476 464.587C85.5191 465.053 86.3216 465.727 86.8833 466.609C87.445 467.492 87.7258 468.543 87.7258 469.763C87.7258 470.983 87.445 472.034 86.8833 472.917C86.3216 473.783 85.5191 474.457 84.476 474.939C83.4328 475.404 82.173 475.637 80.6965 475.637H75.4486L76.5319 474.505V480.74H74.1246ZM76.5319 474.746L75.4486 473.542H80.6243C82.165 473.542 83.3285 473.213 84.1149 472.555C84.9173 471.897 85.3185 470.967 85.3185 469.763C85.3185 468.559 84.9173 467.629 84.1149 466.971C83.3285 466.313 82.165 465.984 80.6243 465.984H75.4486L76.5319 464.78V474.746ZM98.2464 480.74V478.044L98.1261 477.539V472.941C98.1261 471.962 97.8372 471.207 97.2594 470.678C96.6977 470.132 95.8472 469.859 94.7077 469.859C93.9534 469.859 93.2152 469.988 92.493 470.244C91.7708 470.485 91.161 470.814 90.6635 471.231L89.7005 469.498C90.3585 468.969 91.1449 468.567 92.0597 468.295C92.9905 468.006 93.9615 467.861 94.9725 467.861C96.7218 467.861 98.0699 468.286 99.0168 469.137C99.9636 469.988 100.437 471.288 100.437 473.037V480.74H98.2464ZM94.0577 480.885C93.1109 480.885 92.2763 480.724 91.5542 480.403C90.848 480.082 90.3024 479.641 89.9172 479.079C89.532 478.501 89.3394 477.851 89.3394 477.129C89.3394 476.439 89.4999 475.813 89.8209 475.252C90.1579 474.69 90.6956 474.241 91.4338 473.904C92.1881 473.566 93.1991 473.398 94.467 473.398H98.5112V475.059H94.5633C93.4078 475.059 92.6294 475.252 92.2282 475.637C91.827 476.022 91.6264 476.487 91.6264 477.033C91.6264 477.659 91.8751 478.164 92.3726 478.55C92.8701 478.919 93.5602 479.103 94.4429 479.103C95.3095 479.103 96.0638 478.911 96.7058 478.526C97.3638 478.14 97.8372 477.579 98.1261 476.84L98.5835 478.429C98.2785 479.184 97.7409 479.785 96.9706 480.235C96.2002 480.668 95.2293 480.885 94.0577 480.885ZM104.551 485.555C103.941 485.555 103.347 485.451 102.77 485.242C102.192 485.049 101.694 484.76 101.277 484.375L102.264 482.642C102.585 482.947 102.938 483.18 103.323 483.34C103.708 483.501 104.118 483.581 104.551 483.581C105.113 483.581 105.578 483.436 105.947 483.148C106.316 482.859 106.661 482.345 106.982 481.607L107.777 479.85L108.017 479.561L113.025 467.982H115.287L109.101 482.016C108.732 482.915 108.314 483.621 107.849 484.135C107.4 484.648 106.902 485.009 106.356 485.218C105.811 485.442 105.209 485.555 104.551 485.555ZM107.584 481.149L101.758 467.982H104.166L109.125 479.344L107.584 481.149ZM132.923 467.861C133.95 467.861 134.857 468.062 135.643 468.463C136.43 468.864 137.04 469.474 137.473 470.293C137.922 471.111 138.147 472.146 138.147 473.398V480.74H135.836V473.663C135.836 472.427 135.547 471.496 134.969 470.87C134.392 470.244 133.581 469.931 132.538 469.931C131.768 469.931 131.094 470.092 130.516 470.413C129.938 470.734 129.489 471.207 129.168 471.833C128.863 472.459 128.71 473.237 128.71 474.168V480.74H126.399V473.663C126.399 472.427 126.11 471.496 125.533 470.87C124.971 470.244 124.161 469.931 123.101 469.931C122.347 469.931 121.681 470.092 121.103 470.413C120.526 470.734 120.076 471.207 119.755 471.833C119.434 472.459 119.274 473.237 119.274 474.168V480.74H116.963V467.982H119.177V471.376L118.816 470.509C119.218 469.675 119.835 469.025 120.67 468.559C121.505 468.094 122.475 467.861 123.583 467.861C124.803 467.861 125.854 468.166 126.736 468.776C127.619 469.37 128.197 470.277 128.47 471.496L127.531 471.111C127.916 470.132 128.59 469.346 129.553 468.752C130.516 468.158 131.639 467.861 132.923 467.861ZM147.599 480.885C146.235 480.885 145.031 480.604 143.988 480.042C142.961 479.48 142.159 478.71 141.581 477.731C141.019 476.752 140.738 475.629 140.738 474.361C140.738 473.093 141.011 471.97 141.557 470.991C142.118 470.012 142.881 469.249 143.844 468.704C144.823 468.142 145.922 467.861 147.142 467.861C148.377 467.861 149.469 468.134 150.416 468.68C151.362 469.225 152.101 469.996 152.63 470.991C153.176 471.97 153.449 473.117 153.449 474.433C153.449 474.529 153.441 474.642 153.425 474.77C153.425 474.899 153.417 475.019 153.401 475.131H142.544V473.47H152.197L151.258 474.048C151.274 473.229 151.106 472.499 150.753 471.857C150.399 471.215 149.91 470.718 149.284 470.365C148.674 469.996 147.96 469.811 147.142 469.811C146.339 469.811 145.625 469.996 144.999 470.365C144.373 470.718 143.884 471.223 143.531 471.881C143.178 472.523 143.001 473.262 143.001 474.096V474.481C143.001 475.332 143.194 476.094 143.579 476.768C143.98 477.426 144.534 477.94 145.24 478.309C145.946 478.678 146.756 478.863 147.671 478.863C148.425 478.863 149.108 478.734 149.717 478.477C150.343 478.221 150.889 477.835 151.354 477.322L152.63 478.814C152.052 479.488 151.33 480.002 150.464 480.355C149.613 480.708 148.658 480.885 147.599 480.885ZM162.989 467.861C164.032 467.861 164.947 468.062 165.733 468.463C166.536 468.864 167.162 469.474 167.611 470.293C168.06 471.111 168.285 472.146 168.285 473.398V480.74H165.974V473.663C165.974 472.427 165.669 471.496 165.059 470.87C164.465 470.244 163.623 469.931 162.532 469.931C161.713 469.931 160.999 470.092 160.389 470.413C159.779 470.734 159.306 471.207 158.969 471.833C158.648 472.459 158.487 473.237 158.487 474.168V480.74H156.176V467.982H158.391V471.424L158.03 470.509C158.447 469.675 159.089 469.025 159.956 468.559C160.822 468.094 161.833 467.861 162.989 467.861ZM176.462 480.885C175.178 480.885 174.183 480.54 173.477 479.85C172.771 479.159 172.417 478.172 172.417 476.889V465.189H174.728V476.792C174.728 477.482 174.897 478.012 175.234 478.381C175.587 478.75 176.085 478.935 176.727 478.935C177.449 478.935 178.051 478.734 178.532 478.333L179.254 479.994C178.901 480.299 178.476 480.524 177.978 480.668C177.497 480.812 176.991 480.885 176.462 480.885ZM170.251 469.883V467.982H178.388V469.883H170.251ZM187.55 480.74V467.982H189.765V471.448L189.548 470.581C189.901 469.699 190.495 469.025 191.33 468.559C192.164 468.094 193.191 467.861 194.411 467.861V470.1C194.315 470.084 194.218 470.076 194.122 470.076C194.042 470.076 193.962 470.076 193.881 470.076C192.646 470.076 191.667 470.445 190.944 471.183C190.222 471.922 189.861 472.989 189.861 474.385V480.74H187.55ZM202.341 480.885C200.977 480.885 199.774 480.604 198.73 480.042C197.703 479.48 196.901 478.71 196.323 477.731C195.761 476.752 195.481 475.629 195.481 474.361C195.481 473.093 195.753 471.97 196.299 470.991C196.861 470.012 197.623 469.249 198.586 468.704C199.565 468.142 200.664 467.861 201.884 467.861C203.12 467.861 204.211 468.134 205.158 468.68C206.105 469.225 206.843 469.996 207.373 470.991C207.918 471.97 208.191 473.117 208.191 474.433C208.191 474.529 208.183 474.642 208.167 474.77C208.167 474.899 208.159 475.019 208.143 475.131H197.286V473.47H206.939L206.001 474.048C206.017 473.229 205.848 472.499 205.495 471.857C205.142 471.215 204.652 470.718 204.027 470.365C203.417 469.996 202.703 469.811 201.884 469.811C201.082 469.811 200.367 469.996 199.742 470.365C199.116 470.718 198.626 471.223 198.273 471.881C197.92 472.523 197.744 473.262 197.744 474.096V474.481C197.744 475.332 197.936 476.094 198.321 476.768C198.722 477.426 199.276 477.94 199.982 478.309C200.688 478.678 201.499 478.863 202.414 478.863C203.168 478.863 203.85 478.734 204.46 478.477C205.086 478.221 205.631 477.835 206.097 477.322L207.373 478.814C206.795 479.488 206.073 480.002 205.206 480.355C204.356 480.708 203.401 480.885 202.341 480.885ZM210.919 480.74V462.878H213.23V480.74H210.919ZM222.842 480.885C221.478 480.885 220.274 480.604 219.231 480.042C218.204 479.48 217.402 478.71 216.824 477.731C216.262 476.752 215.981 475.629 215.981 474.361C215.981 473.093 216.254 471.97 216.8 470.991C217.361 470.012 218.124 469.249 219.087 468.704C220.066 468.142 221.165 467.861 222.385 467.861C223.62 467.861 224.712 468.134 225.659 468.68C226.605 469.225 227.344 469.996 227.873 470.991C228.419 471.97 228.692 473.117 228.692 474.433C228.692 474.529 228.684 474.642 228.668 474.77C228.668 474.899 228.66 475.019 228.644 475.131H217.787V473.47H227.44L226.501 474.048C226.517 473.229 226.349 472.499 225.996 471.857C225.642 471.215 225.153 470.718 224.527 470.365C223.917 469.996 223.203 469.811 222.385 469.811C221.582 469.811 220.868 469.996 220.242 470.365C219.616 470.718 219.127 471.223 218.774 471.881C218.421 472.523 218.244 473.262 218.244 474.096V474.481C218.244 475.332 218.437 476.094 218.822 476.768C219.223 477.426 219.777 477.94 220.483 478.309C221.189 478.678 221.999 478.863 222.914 478.863C223.669 478.863 224.351 478.734 224.96 478.477C225.586 478.221 226.132 477.835 226.597 477.322L227.873 478.814C227.296 479.488 226.573 480.002 225.707 480.355C224.856 480.708 223.901 480.885 222.842 480.885ZM238.987 480.74V478.044L238.866 477.539V472.941C238.866 471.962 238.577 471.207 238 470.678C237.438 470.132 236.587 469.859 235.448 469.859C234.694 469.859 233.955 469.988 233.233 470.244C232.511 470.485 231.901 470.814 231.404 471.231L230.441 469.498C231.099 468.969 231.885 468.567 232.8 468.295C233.731 468.006 234.702 467.861 235.713 467.861C237.462 467.861 238.81 468.286 239.757 469.137C240.704 469.988 241.177 471.288 241.177 473.037V480.74H238.987ZM234.798 480.885C233.851 480.885 233.017 480.724 232.294 480.403C231.588 480.082 231.043 479.641 230.657 479.079C230.272 478.501 230.08 477.851 230.08 477.129C230.08 476.439 230.24 475.813 230.561 475.252C230.898 474.69 231.436 474.241 232.174 473.904C232.928 473.566 233.939 473.398 235.207 473.398H239.251V475.059H235.304C234.148 475.059 233.37 475.252 232.968 475.637C232.567 476.022 232.367 476.487 232.367 477.033C232.367 477.659 232.615 478.164 233.113 478.55C233.61 478.919 234.3 479.103 235.183 479.103C236.05 479.103 236.804 478.911 237.446 478.526C238.104 478.14 238.577 477.579 238.866 476.84L239.324 478.429C239.019 479.184 238.481 479.785 237.711 480.235C236.94 480.668 235.97 480.885 234.798 480.885ZM248.632 480.885C247.572 480.885 246.561 480.74 245.598 480.451C244.652 480.162 243.905 479.809 243.36 479.392L244.323 477.563C244.868 477.932 245.542 478.245 246.345 478.501C247.147 478.758 247.966 478.887 248.8 478.887C249.875 478.887 250.646 478.734 251.111 478.429C251.593 478.124 251.833 477.699 251.833 477.153C251.833 476.752 251.689 476.439 251.4 476.215C251.111 475.99 250.726 475.821 250.245 475.709C249.779 475.597 249.258 475.5 248.68 475.42C248.102 475.324 247.524 475.211 246.947 475.083C246.369 474.939 245.839 474.746 245.358 474.505C244.876 474.249 244.491 473.904 244.202 473.47C243.913 473.021 243.769 472.427 243.769 471.689C243.769 470.918 243.986 470.244 244.419 469.667C244.852 469.089 245.462 468.648 246.248 468.343C247.051 468.022 247.998 467.861 249.089 467.861C249.924 467.861 250.766 467.966 251.617 468.174C252.483 468.367 253.189 468.648 253.735 469.017L252.748 470.846C252.17 470.461 251.569 470.196 250.943 470.052C250.317 469.907 249.691 469.835 249.065 469.835C248.054 469.835 247.3 470.004 246.802 470.341C246.305 470.662 246.056 471.079 246.056 471.593C246.056 472.026 246.2 472.363 246.489 472.604C246.794 472.828 247.179 473.005 247.645 473.133C248.126 473.262 248.656 473.374 249.233 473.47C249.811 473.55 250.389 473.663 250.967 473.807C251.544 473.936 252.066 474.12 252.531 474.361C253.013 474.602 253.398 474.939 253.687 475.372C253.992 475.805 254.144 476.383 254.144 477.105C254.144 477.876 253.92 478.542 253.47 479.103C253.021 479.665 252.387 480.106 251.569 480.427C250.75 480.732 249.771 480.885 248.632 480.885ZM262.232 480.885C260.868 480.885 259.665 480.604 258.621 480.042C257.594 479.48 256.792 478.71 256.214 477.731C255.652 476.752 255.372 475.629 255.372 474.361C255.372 473.093 255.644 471.97 256.19 470.991C256.752 470.012 257.514 469.249 258.477 468.704C259.456 468.142 260.555 467.861 261.775 467.861C263.011 467.861 264.102 468.134 265.049 468.68C265.996 469.225 266.734 469.996 267.264 470.991C267.809 471.97 268.082 473.117 268.082 474.433C268.082 474.529 268.074 474.642 268.058 474.77C268.058 474.899 268.05 475.019 268.034 475.131H257.177V473.47H266.83L265.891 474.048C265.907 473.229 265.739 472.499 265.386 471.857C265.033 471.215 264.543 470.718 263.917 470.365C263.308 469.996 262.593 469.811 261.775 469.811C260.972 469.811 260.258 469.996 259.632 470.365C259.007 470.718 258.517 471.223 258.164 471.881C257.811 472.523 257.634 473.262 257.634 474.096V474.481C257.634 475.332 257.827 476.094 258.212 476.768C258.613 477.426 259.167 477.94 259.873 478.309C260.579 478.678 261.39 478.863 262.305 478.863C263.059 478.863 263.741 478.734 264.351 478.477C264.977 478.221 265.522 477.835 265.988 477.322L267.264 478.814C266.686 479.488 265.964 480.002 265.097 480.355C264.246 480.708 263.292 480.885 262.232 480.885ZM276.082 480.885C274.846 480.885 273.738 480.612 272.76 480.066C271.797 479.521 271.034 478.758 270.473 477.779C269.911 476.8 269.63 475.661 269.63 474.361C269.63 473.061 269.911 471.93 270.473 470.967C271.034 469.988 271.797 469.225 272.76 468.68C273.738 468.134 274.846 467.861 276.082 467.861C277.157 467.861 278.128 468.102 278.994 468.583C279.861 469.065 280.551 469.787 281.065 470.75C281.594 471.713 281.859 472.917 281.859 474.361C281.859 475.805 281.602 477.009 281.089 477.972C280.591 478.935 279.909 479.665 279.043 480.162C278.176 480.644 277.189 480.885 276.082 480.885ZM276.274 478.863C277.077 478.863 277.799 478.678 278.441 478.309C279.099 477.94 279.612 477.418 279.981 476.744C280.367 476.054 280.559 475.26 280.559 474.361C280.559 473.446 280.367 472.66 279.981 472.002C279.612 471.328 279.099 470.806 278.441 470.437C277.799 470.068 277.077 469.883 276.274 469.883C275.456 469.883 274.725 470.068 274.084 470.437C273.442 470.806 272.928 471.328 272.543 472.002C272.158 472.66 271.965 473.446 271.965 474.361C271.965 475.26 272.158 476.054 272.543 476.744C272.928 477.418 273.442 477.94 274.084 478.309C274.725 478.678 275.456 478.863 276.274 478.863ZM280.631 480.74V477.298L280.776 474.337L280.535 471.376V462.878H282.846V480.74H280.631Z" fill="white"/>
<rect x="18.3711" y="195.4" width="309.739" height="51.3556" rx="9.62918" fill="#5F7F38"/>
<path d="M44.8516 235.122V209.043H57.8447L58.4866 212.253H67.3196V226.696H57.5362L56.8942 223.487H47.2588V235.122H44.8516ZM59.536 224.289H64.9123V214.66H56.4868L55.8448 211.45H47.2588V221.079H58.8941L59.536 224.289Z" fill="#FCFCFC"/>
<path d="M83.9561 229.578V212.727H90.528C92.0045 212.727 93.2643 212.96 94.3075 213.425C95.3506 213.891 96.1531 214.565 96.7148 215.447C97.2765 216.33 97.5573 217.381 97.5573 218.601C97.5573 219.821 97.2765 220.872 96.7148 221.754C96.1531 222.621 95.3506 223.287 94.3075 223.752C93.2643 224.218 92.0045 224.451 90.528 224.451H85.2801L86.3634 223.343V229.578H83.9561ZM95.2223 229.578L90.9373 223.464H93.5131L97.8462 229.578H95.2223ZM86.3634 223.584L85.2801 222.404H90.4558C91.9965 222.404 93.16 222.075 93.9464 221.417C94.7488 220.743 95.15 219.805 95.15 218.601C95.15 217.397 94.7488 216.466 93.9464 215.808C93.16 215.15 91.9965 214.821 90.4558 214.821H85.2801L86.3634 213.618V223.584ZM106.309 229.723C104.945 229.723 103.742 229.442 102.698 228.88C101.671 228.318 100.869 227.548 100.291 226.569C99.7294 225.59 99.4486 224.467 99.4486 223.199C99.4486 221.931 99.7214 220.808 100.267 219.829C100.829 218.85 101.591 218.087 102.554 217.542C103.533 216.98 104.632 216.699 105.852 216.699C107.088 216.699 108.179 216.972 109.126 217.518C110.073 218.063 110.811 218.834 111.341 219.829C111.886 220.808 112.159 221.955 112.159 223.271C112.159 223.367 112.151 223.48 112.135 223.608C112.135 223.736 112.127 223.857 112.111 223.969H101.254V222.308H110.907L109.968 222.886C109.984 222.067 109.816 221.337 109.463 220.695C109.11 220.053 108.62 219.556 107.994 219.203C107.385 218.834 106.67 218.649 105.852 218.649C105.05 218.649 104.335 218.834 103.709 219.203C103.084 219.556 102.594 220.061 102.241 220.719C101.888 221.361 101.711 222.099 101.711 222.934V223.319C101.711 224.17 101.904 224.932 102.289 225.606C102.69 226.264 103.244 226.778 103.95 227.147C104.656 227.516 105.467 227.7 106.382 227.7C107.136 227.7 107.818 227.572 108.428 227.315C109.054 227.058 109.599 226.673 110.065 226.16L111.341 227.652C110.763 228.326 110.041 228.84 109.174 229.193C108.323 229.546 107.369 229.723 106.309 229.723ZM122.454 229.578V226.882L122.334 226.376V221.778C122.334 220.8 122.045 220.045 121.467 219.516C120.905 218.97 120.055 218.697 118.915 218.697C118.161 218.697 117.423 218.826 116.701 219.082C115.978 219.323 115.369 219.652 114.871 220.069L113.908 218.336C114.566 217.806 115.353 217.405 116.267 217.132C117.198 216.844 118.169 216.699 119.18 216.699C120.929 216.699 122.277 217.124 123.224 217.975C124.171 218.826 124.645 220.125 124.645 221.875V229.578H122.454ZM118.265 229.723C117.318 229.723 116.484 229.562 115.762 229.241C115.056 228.92 114.51 228.479 114.125 227.917C113.74 227.339 113.547 226.689 113.547 225.967C113.547 225.277 113.708 224.651 114.028 224.089C114.366 223.528 114.903 223.078 115.641 222.741C116.396 222.404 117.407 222.236 118.675 222.236H122.719V223.897H118.771C117.615 223.897 116.837 224.089 116.436 224.475C116.035 224.86 115.834 225.325 115.834 225.871C115.834 226.497 116.083 227.002 116.58 227.387C117.078 227.757 117.768 227.941 118.65 227.941C119.517 227.941 120.271 227.749 120.913 227.363C121.571 226.978 122.045 226.417 122.334 225.678L122.791 227.267C122.486 228.021 121.948 228.623 121.178 229.073C120.408 229.506 119.437 229.723 118.265 229.723ZM128.44 229.578V211.716H130.751V229.578H128.44ZM145.047 229.723C143.763 229.723 142.768 229.378 142.062 228.687C141.355 227.997 141.002 227.01 141.002 225.726V214.027H143.313V225.63C143.313 226.32 143.482 226.85 143.819 227.219C144.172 227.588 144.67 227.773 145.311 227.773C146.034 227.773 146.635 227.572 147.117 227.171L147.839 228.832C147.486 229.137 147.061 229.361 146.563 229.506C146.082 229.65 145.576 229.723 145.047 229.723ZM138.836 218.721V216.819H146.973V218.721H138.836ZM150.152 229.578V216.819H152.463V229.578H150.152ZM151.307 214.364C150.858 214.364 150.481 214.22 150.176 213.931C149.887 213.642 149.742 213.289 149.742 212.871C149.742 212.438 149.887 212.077 150.176 211.788C150.481 211.499 150.858 211.355 151.307 211.355C151.757 211.355 152.126 211.499 152.415 211.788C152.719 212.061 152.872 212.406 152.872 212.823C152.872 213.257 152.727 213.626 152.439 213.931C152.15 214.22 151.773 214.364 151.307 214.364ZM172.354 216.699C173.381 216.699 174.288 216.9 175.074 217.301C175.861 217.702 176.471 218.312 176.904 219.13C177.353 219.949 177.578 220.984 177.578 222.236V229.578H175.267V222.501C175.267 221.265 174.978 220.334 174.4 219.708C173.822 219.082 173.012 218.769 171.969 218.769C171.199 218.769 170.525 218.93 169.947 219.251C169.369 219.572 168.92 220.045 168.599 220.671C168.294 221.297 168.141 222.075 168.141 223.006V229.578H165.83V222.501C165.83 221.265 165.541 220.334 164.964 219.708C164.402 219.082 163.591 218.769 162.532 218.769C161.778 218.769 161.112 218.93 160.534 219.251C159.956 219.572 159.507 220.045 159.186 220.671C158.865 221.297 158.705 222.075 158.705 223.006V229.578H156.394V216.819H158.608V220.214L158.247 219.347C158.649 218.513 159.266 217.863 160.101 217.397C160.935 216.932 161.906 216.699 163.014 216.699C164.233 216.699 165.285 217.004 166.167 217.614C167.05 218.208 167.628 219.114 167.901 220.334L166.962 219.949C167.347 218.97 168.021 218.184 168.984 217.59C169.947 216.996 171.07 216.699 172.354 216.699ZM187.03 229.723C185.666 229.723 184.462 229.442 183.419 228.88C182.392 228.318 181.589 227.548 181.012 226.569C180.45 225.59 180.169 224.467 180.169 223.199C180.169 221.931 180.442 220.808 180.988 219.829C181.549 218.85 182.312 218.087 183.275 217.542C184.253 216.98 185.353 216.699 186.573 216.699C187.808 216.699 188.9 216.972 189.846 217.518C190.793 218.063 191.532 218.834 192.061 219.829C192.607 220.808 192.88 221.955 192.88 223.271C192.88 223.367 192.872 223.48 192.856 223.608C192.856 223.736 192.848 223.857 192.831 223.969H181.975V222.308H191.628L190.689 222.886C190.705 222.067 190.537 221.337 190.183 220.695C189.83 220.053 189.341 219.556 188.715 219.203C188.105 218.834 187.391 218.649 186.573 218.649C185.77 218.649 185.056 218.834 184.43 219.203C183.804 219.556 183.315 220.061 182.962 220.719C182.608 221.361 182.432 222.099 182.432 222.934V223.319C182.432 224.17 182.625 224.932 183.01 225.606C183.411 226.264 183.965 226.778 184.671 227.147C185.377 227.516 186.187 227.7 187.102 227.7C187.856 227.7 188.538 227.572 189.148 227.315C189.774 227.058 190.32 226.673 190.785 226.16L192.061 227.652C191.483 228.326 190.761 228.84 189.895 229.193C189.044 229.546 188.089 229.723 187.03 229.723ZM201.591 229.578V216.819H203.805V220.286L203.589 219.419C203.942 218.537 204.536 217.863 205.37 217.397C206.205 216.932 207.232 216.699 208.451 216.699V218.938C208.355 218.922 208.259 218.914 208.163 218.914C208.082 218.914 208.002 218.914 207.922 218.914C206.686 218.914 205.707 219.283 204.985 220.021C204.263 220.759 203.902 221.827 203.902 223.223V229.578H201.591ZM216.382 229.723C215.018 229.723 213.814 229.442 212.771 228.88C211.744 228.318 210.941 227.548 210.364 226.569C209.802 225.59 209.521 224.467 209.521 223.199C209.521 221.931 209.794 220.808 210.34 219.829C210.901 218.85 211.664 218.087 212.627 217.542C213.606 216.98 214.705 216.699 215.925 216.699C217.16 216.699 218.252 216.972 219.198 217.518C220.145 218.063 220.884 218.834 221.413 219.829C221.959 220.808 222.232 221.955 222.232 223.271C222.232 223.367 222.224 223.48 222.208 223.608C222.208 223.736 222.2 223.857 222.184 223.969H211.327V222.308H220.98L220.041 222.886C220.057 222.067 219.889 221.337 219.536 220.695C219.182 220.053 218.693 219.556 218.067 219.203C217.457 218.834 216.743 218.649 215.925 218.649C215.122 218.649 214.408 218.834 213.782 219.203C213.156 219.556 212.667 220.061 212.314 220.719C211.961 221.361 211.784 222.099 211.784 222.934V223.319C211.784 224.17 211.977 224.932 212.362 225.606C212.763 226.264 213.317 226.778 214.023 227.147C214.729 227.516 215.539 227.7 216.454 227.7C217.208 227.7 217.891 227.572 218.5 227.315C219.126 227.058 219.672 226.673 220.137 226.16L221.413 227.652C220.835 228.326 220.113 228.84 219.247 229.193C218.396 229.546 217.441 229.723 216.382 229.723ZM231.724 229.723C230.665 229.723 229.694 229.482 228.811 229C227.944 228.503 227.246 227.773 226.717 226.81C226.203 225.847 225.946 224.643 225.946 223.199C225.946 221.754 226.195 220.551 226.693 219.588C227.206 218.625 227.896 217.903 228.763 217.421C229.645 216.94 230.632 216.699 231.724 216.699C232.976 216.699 234.083 216.972 235.046 217.518C236.009 218.063 236.771 218.826 237.333 219.805C237.894 220.767 238.175 221.899 238.175 223.199C238.175 224.499 237.894 225.638 237.333 226.617C236.771 227.596 236.009 228.358 235.046 228.904C234.083 229.45 232.976 229.723 231.724 229.723ZM224.959 234.248V216.819H227.174V220.262L227.03 223.223L227.27 226.184V234.248H224.959ZM231.531 227.7C232.35 227.7 233.08 227.516 233.722 227.147C234.38 226.778 234.893 226.256 235.262 225.582C235.648 224.892 235.84 224.098 235.84 223.199C235.84 222.284 235.648 221.498 235.262 220.84C234.893 220.166 234.38 219.644 233.722 219.275C233.08 218.906 232.35 218.721 231.531 218.721C230.729 218.721 229.999 218.906 229.341 219.275C228.699 219.644 228.185 220.166 227.8 220.84C227.431 221.498 227.246 222.284 227.246 223.199C227.246 224.098 227.431 224.892 227.8 225.582C228.185 226.256 228.699 226.778 229.341 227.147C229.999 227.516 230.729 227.7 231.531 227.7ZM246.351 229.723C245.068 229.723 243.928 229.442 242.933 228.88C241.938 228.318 241.152 227.548 240.574 226.569C239.996 225.574 239.707 224.451 239.707 223.199C239.707 221.931 239.996 220.808 240.574 219.829C241.152 218.85 241.938 218.087 242.933 217.542C243.928 216.98 245.068 216.699 246.351 216.699C247.619 216.699 248.751 216.98 249.746 217.542C250.757 218.087 251.543 218.85 252.105 219.829C252.683 220.791 252.972 221.915 252.972 223.199C252.972 224.467 252.683 225.59 252.105 226.569C251.543 227.548 250.757 228.318 249.746 228.88C248.751 229.442 247.619 229.723 246.351 229.723ZM246.351 227.7C247.17 227.7 247.9 227.516 248.542 227.147C249.2 226.778 249.714 226.256 250.083 225.582C250.452 224.892 250.636 224.098 250.636 223.199C250.636 222.284 250.452 221.498 250.083 220.84C249.714 220.166 249.2 219.644 248.542 219.275C247.9 218.906 247.17 218.721 246.351 218.721C245.533 218.721 244.803 218.906 244.161 219.275C243.519 219.644 243.005 220.166 242.62 220.84C242.235 221.498 242.042 222.284 242.042 223.199C242.042 224.098 242.235 224.892 242.62 225.582C243.005 226.256 243.519 226.778 244.161 227.147C244.803 227.516 245.533 227.7 246.351 227.7ZM255.686 229.578V216.819H257.901V220.286L257.684 219.419C258.037 218.537 258.631 217.863 259.466 217.397C260.3 216.932 261.327 216.699 262.547 216.699V218.938C262.451 218.922 262.354 218.914 262.258 218.914C262.178 218.914 262.098 218.914 262.017 218.914C260.782 218.914 259.803 219.283 259.08 220.021C258.358 220.759 257.997 221.827 257.997 223.223V229.578H255.686ZM269.812 229.723C268.528 229.723 267.533 229.378 266.827 228.687C266.121 227.997 265.768 227.01 265.768 225.726V214.027H268.079V225.63C268.079 226.32 268.247 226.85 268.585 227.219C268.938 227.588 269.435 227.773 270.077 227.773C270.799 227.773 271.401 227.572 271.883 227.171L272.605 228.832C272.252 229.137 271.826 229.361 271.329 229.506C270.847 229.65 270.342 229.723 269.812 229.723ZM263.601 218.721V216.819H271.738V218.721H263.601ZM274.917 229.578V216.819H277.228V229.578H274.917ZM276.073 214.364C275.623 214.364 275.246 214.22 274.941 213.931C274.652 213.642 274.508 213.289 274.508 212.871C274.508 212.438 274.652 212.077 274.941 211.788C275.246 211.499 275.623 211.355 276.073 211.355C276.522 211.355 276.891 211.499 277.18 211.788C277.485 212.061 277.637 212.406 277.637 212.823C277.637 213.257 277.493 213.626 277.204 213.931C276.915 214.22 276.538 214.364 276.073 214.364ZM287.972 216.699C289.015 216.699 289.93 216.9 290.716 217.301C291.519 217.702 292.145 218.312 292.594 219.13C293.043 219.949 293.268 220.984 293.268 222.236V229.578H290.957V222.501C290.957 221.265 290.652 220.334 290.042 219.708C289.448 219.082 288.606 218.769 287.515 218.769C286.696 218.769 285.982 218.93 285.372 219.251C284.762 219.572 284.289 220.045 283.952 220.671C283.631 221.297 283.47 222.075 283.47 223.006V229.578H281.159V216.819H283.374V220.262L283.013 219.347C283.43 218.513 284.072 217.863 284.939 217.397C285.805 216.932 286.816 216.699 287.972 216.699ZM302.648 234.393C301.477 234.393 300.337 234.224 299.23 233.887C298.139 233.566 297.248 233.101 296.558 232.491L297.665 230.71C298.259 231.223 298.989 231.624 299.856 231.913C300.722 232.218 301.629 232.371 302.576 232.371C304.085 232.371 305.192 232.018 305.898 231.311C306.604 230.605 306.957 229.53 306.957 228.086V225.389L307.198 222.862L307.078 220.31V216.819H309.268V227.845C309.268 230.092 308.707 231.745 307.583 232.804C306.46 233.863 304.815 234.393 302.648 234.393ZM302.359 229.049C301.124 229.049 300.016 228.792 299.037 228.278C298.074 227.749 297.304 227.018 296.726 226.088C296.165 225.157 295.884 224.081 295.884 222.862C295.884 221.626 296.165 220.551 296.726 219.636C297.304 218.705 298.074 217.983 299.037 217.469C300.016 216.956 301.124 216.699 302.359 216.699C303.451 216.699 304.446 216.924 305.344 217.373C306.243 217.806 306.957 218.48 307.487 219.395C308.033 220.31 308.305 221.466 308.305 222.862C308.305 224.242 308.033 225.389 307.487 226.304C306.957 227.219 306.243 227.909 305.344 228.374C304.446 228.824 303.451 229.049 302.359 229.049ZM302.624 227.026C303.475 227.026 304.229 226.85 304.887 226.497C305.545 226.144 306.059 225.654 306.428 225.028C306.813 224.402 307.006 223.68 307.006 222.862C307.006 222.043 306.813 221.321 306.428 220.695C306.059 220.069 305.545 219.588 304.887 219.251C304.229 218.898 303.475 218.721 302.624 218.721C301.774 218.721 301.011 218.898 300.337 219.251C299.679 219.588 299.158 220.069 298.773 220.695C298.403 221.321 298.219 222.043 298.219 222.862C298.219 223.68 298.403 224.402 298.773 225.028C299.158 225.654 299.679 226.144 300.337 226.497C301.011 226.85 301.774 227.026 302.624 227.026Z" fill="white"/>
<path d="M602.818 494.151C602.953 495.027 603.772 495.628 604.648 495.493L618.924 493.297C619.8 493.162 620.401 492.342 620.266 491.466C620.132 490.59 619.312 489.989 618.436 490.124L605.746 492.076L603.794 479.387C603.659 478.511 602.84 477.91 601.964 478.045C601.088 478.179 600.487 478.999 600.622 479.875L602.818 494.151ZM653.39 386.038C642.225 437.075 620.709 468.96 603.11 492.958L605.698 494.856C623.407 470.708 645.222 438.398 656.525 386.724L653.39 386.038Z" fill="#5F7F38"/>
<path d="M228.062 516.374C227.176 516.374 226.458 517.092 226.458 517.979V532.422C226.458 533.309 227.176 534.027 228.062 534.027C228.949 534.027 229.667 533.309 229.667 532.422V519.583H242.506C243.393 519.583 244.111 518.865 244.111 517.979C244.111 517.092 243.393 516.374 242.506 516.374H228.062ZM493.063 571.057C443.374 591.252 321.006 608.653 229.197 516.844L226.928 519.113C319.999 612.185 443.924 594.493 494.272 574.031L493.063 571.057Z" fill="#5F7F38"/>
<path d="M161.173 267.707C160.778 266.913 159.815 266.59 159.021 266.985L146.09 273.419C145.296 273.813 144.973 274.777 145.368 275.57C145.762 276.364 146.726 276.687 147.519 276.292L159.014 270.574L164.733 282.069C165.128 282.862 166.091 283.185 166.885 282.791C167.678 282.396 168.002 281.432 167.607 280.639L161.173 267.707ZM167.736 432.256C155.82 406.041 139.071 335.052 161.258 268.932L158.215 267.911C135.704 334.995 152.657 406.84 164.814 433.584L167.736 432.256Z" fill="#5F7F38"/>
<path fill-rule="evenodd" clip-rule="evenodd" d="M417.097 373.948C418.443 373.948 419.534 375.045 419.534 376.401C419.534 377.755 418.443 378.855 417.097 378.855C415.752 378.855 414.661 377.755 414.661 376.401C414.661 375.045 415.752 373.948 417.097 373.948ZM428.879 323.098C446.11 314.42 428.51 295.267 457.801 306.775C457.801 306.775 481.44 334.149 429.543 333.193C429.543 333.193 423.622 330.478 434.536 325.302C445.999 319.952 445.922 320.462 450.852 316.306C450.852 316.306 447.124 319.152 435.315 324.053C415.92 332.367 419.265 353.094 419.265 370.843C421.464 371.716 423.023 373.876 423.023 376.401C423.023 379.698 420.37 382.369 417.097 382.369C413.825 382.369 411.174 379.698 411.174 376.401C411.174 373.876 412.731 371.716 414.93 370.843C414.93 354.987 412.342 331.427 428.879 323.098Z" fill="#5F7F38"/>
<path fill-rule="evenodd" clip-rule="evenodd" d="M406.235 359.224C404.782 359.224 403.607 360.354 403.607 361.752C403.607 363.148 404.782 364.282 406.235 364.282C407.687 364.282 408.866 363.148 408.866 361.752C408.866 360.354 407.687 359.224 406.235 359.224ZM393.514 306.801C373.735 293.702 378.593 276.6 356.398 288.464C356.398 288.464 331.665 321.974 386.512 318.342C386.512 318.342 396.547 312.243 385.383 307.894C379.294 304.646 376.119 304.387 369.793 299.799C369.793 299.799 376.795 303.179 386.567 307.786C407.505 316.357 403.895 337.724 403.895 356.024C401.519 356.923 399.838 359.15 399.838 361.752C399.838 365.151 402.701 367.905 406.235 367.905C409.767 367.905 412.633 365.151 412.633 361.752C412.633 359.15 410.95 356.923 408.573 356.024C408.573 339.678 411.368 315.387 393.514 306.801Z" fill="#5F7F38"/>
<path d="M448.738 345.075C447.945 352.739 444.847 359.712 440.16 365.28C435.411 370.917 429.024 375.117 421.735 377.134L420.973 374.32C427.683 372.465 433.565 368.592 437.945 363.39C442.269 358.26 445.122 351.835 445.855 344.777L448.738 345.075ZM409.527 303.927C409.876 303.904 410.27 303.886 410.713 303.872C411.214 303.856 411.609 303.848 411.902 303.848C417.709 303.848 423.208 305.196 428.106 307.598C433.183 310.091 437.614 313.723 441.073 318.17L438.791 319.966C435.611 315.879 431.523 312.533 426.835 310.23C422.325 308.017 417.257 306.776 411.902 306.776C411.431 306.776 411.065 306.78 410.804 306.789C410.483 306.797 410.117 306.817 409.709 306.841L409.527 303.927ZM398.382 375.903C391.396 373.144 385.446 368.308 381.278 362.151C377.229 356.167 374.857 348.94 374.857 341.159C374.857 336.266 375.798 331.587 377.505 327.294C379.276 322.844 381.871 318.815 385.104 315.405L387.204 317.42C384.223 320.564 381.827 324.279 380.197 328.38C378.63 332.324 377.766 336.635 377.766 341.159C377.766 348.337 379.945 354.996 383.675 360.506C387.516 366.181 393.001 370.639 399.438 373.183L398.382 375.903Z" fill="#5F7F38"/>
<path fill-rule="evenodd" clip-rule="evenodd" d="M403.061 378.854C404.41 378.854 405.499 377.754 405.499 376.4C405.499 375.044 404.41 373.947 403.061 373.947C401.718 373.947 400.627 375.044 400.627 376.4C400.627 377.754 401.718 378.854 403.061 378.854ZM403.061 382.368C406.336 382.368 408.988 379.697 408.988 376.4C408.988 373.105 406.336 370.432 403.061 370.432C399.792 370.432 397.139 373.105 397.139 376.4C397.139 379.697 399.792 382.368 403.061 382.368Z" fill="#5F7F38"/>
<path fill-rule="evenodd" clip-rule="evenodd" d="M447.473 343.309C448.818 343.309 449.907 342.211 449.907 340.857C449.907 339.503 448.818 338.404 447.473 338.404C446.128 338.404 445.035 339.503 445.035 340.857C445.035 342.211 446.128 343.309 447.473 343.309ZM447.473 346.825C450.745 346.825 453.398 344.154 453.398 340.857C453.398 337.562 450.745 334.889 447.473 334.889C444.2 334.889 441.547 337.562 441.547 340.857C441.547 344.154 444.2 346.825 447.473 346.825Z" fill="#5F7F38"/>
<path fill-rule="evenodd" clip-rule="evenodd" d="M405.446 308.333C406.789 308.333 407.88 307.234 407.88 305.88C407.88 304.526 406.789 303.428 405.446 303.428C404.099 303.428 403.008 304.526 403.008 305.88C403.008 307.234 404.099 308.333 405.446 308.333ZM405.446 311.849C408.717 311.849 411.37 309.177 411.37 305.88C411.37 302.585 408.717 299.912 405.446 299.912C402.173 299.912 399.52 302.585 399.52 305.88C399.52 309.177 402.173 311.849 405.446 311.849Z" fill="#5F7F38"/>
<path fill-rule="evenodd" clip-rule="evenodd" d="M392.162 305.275C392.211 295.952 380.229 299.386 391.497 289.243C391.497 289.243 412.202 286.556 396.381 306.014C393.752 305.845 393.969 305.637 394.33 303.315C395.018 296.992 394.744 297.345 394.045 294.314C394.045 294.314 394.814 298.097 393.968 302.705C393.612 312.13 395.873 307.705 396.232 310.783C396.281 311.205 393.989 311.254 393.915 311.503C392.013 307.382 392.486 307.798 392.162 305.275Z" fill="#5F7F38"/>
<path fill-rule="evenodd" clip-rule="evenodd" d="M424.954 325.39C424.914 317.805 434.993 320.6 425.515 312.348C425.515 312.348 408.098 310.164 421.406 325.991C423.616 325.852 423.434 325.685 423.131 323.795C422.552 318.652 422.783 318.939 423.371 316.474C423.371 316.474 422.723 319.551 423.436 323.299C423.734 330.965 421.832 327.367 421.531 329.87C421.49 330.212 423.417 330.253 423.48 330.456C425.079 327.102 424.683 327.441 424.954 325.39Z" fill="#5F7F38"/>
</svg>
