<svg xmlns="http://www.w3.org/2000/svg" viewBox="0 0 720 520" role="img" aria-label="Simplified map of Southern Africa derived from Natural Earth country borders">
  <defs>
    <style>
      .country { fill: #efe7d1; stroke: #1d3524; stroke-width: 1.6; stroke-linejoin: round; stroke-linecap: round; vector-effect: non-scaling-stroke; }
      .focus { fill: #e4dfc3; }
      .sa { fill: #d0d9b0; stroke-width: 2.4; }
      .enclave { fill: #f7f1df; stroke-width: 1.25; }
      .graticule { fill: none; stroke: #1d3524; stroke-width: .8; opacity: .14; vector-effect: non-scaling-stroke; }
    </style>
  </defs>
  <path class="graticule" d="M60 58h600v398H60zM160 58v398M260 58v398M360 58v398M460 58v398M560 58v398M60 157h600M60 256h600M60 355h600"/>
  <path id="angola" class="country" d="M186.9 29.8 L183.4 31.3 L177.9 36.1 L179.0 37.3 L178.9 41.3 L178.7 45.2 L174.5 46.1 L174.3 45.7 L173.6 44.3 L174.0 42.9 L174.4 41.9 L173.9 39.8 L171.6 35.2 L174.3 31.9 L175.8 31.7 L177.0 29.6 L183.0 26.8 L183.7 26.8 L184.2 27.0 L186.9 29.8 Z M345.0 120.3 L346.2 128.0 L345.1 131.4 L344.9 138.4 L345.4 141.8 L345.4 142.8 L343.8 148.3 L345.0 150.6 L345.0 151.0 L316.2 151.2 L316.2 194.1 L317.1 198.5 L318.7 203.4 L323.1 206.5 L336.5 218.5 L308.0 223.7 L303.6 223.1 L300.6 223.8 L298.3 224.0 L293.2 222.1 L282.2 221.8 L272.3 220.9 L270.4 220.3 L268.9 219.4 L267.0 217.5 L265.5 215.6 L264.2 215.0 L200.6 215.1 L196.0 212.6 L194.0 211.3 L192.8 209.8 L187.4 208.7 L179.3 212.3 L174.5 212.3 L173.0 211.6 L171.6 211.7 L170.0 212.5 L167.6 212.8 L168.2 207.3 L168.7 204.9 L168.8 202.0 L168.4 194.5 L168.0 193.5 L167.8 192.3 L169.2 191.3 L169.9 190.6 L170.9 189.4 L171.6 187.6 L172.4 183.8 L175.4 174.9 L176.9 166.3 L178.7 162.1 L179.4 157.5 L184.4 151.6 L185.6 147.9 L188.2 146.1 L191.9 144.2 L194.6 140.8 L195.8 138.5 L197.3 134.0 L197.3 129.2 L198.2 122.9 L198.0 121.1 L196.6 118.6 L196.3 116.8 L195.1 115.1 L193.7 113.8 L193.1 111.4 L190.7 107.6 L190.1 105.1 L188.9 103.3 L188.7 101.1 L188.1 98.8 L187.0 96.5 L185.9 93.8 L185.9 93.0 L186.6 92.0 L187.2 91.7 L186.7 93.2 L191.1 88.6 L191.4 84.0 L187.2 75.4 L183.9 67.5 L183.3 63.5 L178.9 58.2 L175.5 51.4 L175.8 51.0 L182.8 49.7 L186.0 48.3 L186.9 47.6 L188.6 47.5 L190.3 47.9 L200.1 47.5 L206.2 48.1 L234.0 47.7 L235.7 48.2 L237.2 49.1 L239.5 52.0 L240.2 58.6 L241.2 60.8 L242.8 63.2 L243.7 67.9 L252.3 80.1 L257.2 79.6 L258.6 80.2 L259.1 80.1 L261.2 79.0 L266.6 77.7 L272.1 78.6 L275.0 78.6 L277.9 78.1 L278.3 74.4 L278.3 73.6 L279.0 72.2 L279.9 71.0 L280.0 69.8 L280.0 68.2 L280.6 66.2 L282.5 64.7 L285.6 63.9 L296.0 63.0 L295.2 66.8 L295.6 67.7 L296.3 68.1 L313.3 68.7 L313.7 68.9 L314.2 70.2 L314.1 72.8 L313.3 76.7 L313.6 80.3 L315.0 83.6 L315.1 88.7 L313.8 99.9 L314.4 101.8 L319.3 108.2 L320.5 111.4 L320.9 117.7 L320.5 119.0 L319.4 119.7 L319.1 120.6 L319.6 122.3 L319.8 123.9 L321.0 125.0 L324.6 123.0 L332.1 123.4 L337.7 121.7 L343.1 122.4 L344.1 121.9 L344.1 121.3 L344.5 120.6 L345.0 120.3 Z"/>
  <path id="zambia" class="country" d="M438.3 189.5 L428.6 189.5 L425.1 190.3 L416.8 194.5 L416.2 195.2 L415.6 200.9 L414.6 202.4 L414.6 202.4 L409.3 204.3 L405.9 205.9 L402.5 207.7 L400.0 210.1 L398.3 213.0 L395.4 216.6 L392.4 219.8 L389.3 223.1 L385.8 224.3 L382.9 224.1 L379.3 222.7 L376.5 222.4 L374.5 223.3 L372.5 223.0 L370.8 221.7 L369.3 221.2 L368.1 221.5 L366.6 221.5 L363.8 220.7 L361.3 218.4 L360.0 217.5 L359.0 217.1 L356.1 216.7 L349.5 216.2 L336.5 218.5 L323.1 206.5 L318.7 203.4 L317.1 198.5 L316.2 194.1 L316.2 151.2 L345.0 151.0 L345.0 150.6 L343.8 148.3 L345.4 142.8 L345.4 141.8 L344.9 138.4 L345.1 131.4 L346.2 128.0 L345.0 120.3 L345.5 120.4 L346.6 120.6 L347.2 121.5 L347.5 122.5 L348.2 122.6 L350.1 123.2 L350.8 124.0 L351.2 125.9 L351.0 126.8 L350.4 127.5 L351.0 128.2 L352.3 128.7 L353.0 128.5 L355.2 127.3 L364.2 125.2 L364.6 125.6 L364.2 126.9 L364.1 128.0 L364.7 130.2 L365.1 131.2 L367.4 133.1 L369.0 133.0 L374.9 135.1 L383.2 136.3 L385.1 136.3 L386.5 136.2 L388.3 135.2 L389.7 131.1 L390.4 130.8 L391.3 130.6 L391.9 130.9 L392.5 133.5 L395.2 135.9 L397.3 140.0 L398.4 140.5 L400.0 140.7 L401.5 140.8 L409.5 144.2 L411.5 148.8 L412.5 149.1 L413.3 149.2 L414.1 150.1 L416.9 154.3 L417.2 155.6 L418.2 156.5 L419.7 156.9 L421.0 157.0 L426.1 154.8 L426.7 155.0 L427.2 155.5 L427.4 156.6 L427.5 157.2 L428.5 157.8 L429.3 157.5 L429.6 138.9 L425.4 140.0 L425.1 142.7 L419.0 141.7 L417.7 140.4 L415.9 138.4 L410.5 133.9 L409.1 130.4 L408.7 129.2 L411.4 119.3 L412.8 117.4 L412.9 115.6 L412.3 113.4 L412.7 105.2 L412.3 103.0 L409.3 96.4 L413.4 93.3 L416.1 90.0 L416.8 88.8 L417.1 87.2 L416.6 85.7 L443.4 81.4 L445.5 85.5 L446.6 86.6 L447.5 87.3 L448.2 87.5 L452.1 87.4 L453.6 88.1 L454.8 89.0 L455.1 90.3 L456.0 91.2 L456.8 91.8 L459.9 92.0 L460.7 93.9 L467.9 95.4 L468.6 96.2 L474.9 99.0 L476.0 102.2 L478.9 102.2 L479.2 103.0 L479.7 104.2 L480.6 104.9 L481.2 105.6 L481.0 107.0 L480.6 108.2 L483.8 111.1 L483.9 112.7 L484.1 113.3 L485.2 114.7 L485.7 115.7 L485.6 116.2 L482.8 119.0 L481.9 119.3 L481.1 119.4 L480.3 120.0 L479.9 120.6 L481.6 124.4 L481.1 125.8 L480.0 128.0 L479.5 128.2 L479.4 129.9 L480.5 132.2 L479.7 138.3 L481.0 141.1 L483.5 141.7 L481.9 143.8 L479.6 144.7 L476.4 145.8 L475.7 146.8 L475.3 148.3 L475.7 149.2 L476.1 149.7 L475.6 154.4 L473.9 157.8 L471.3 159.7 L473.1 161.2 L472.7 162.2 L473.3 162.7 L474.2 163.0 L476.0 166.0 L478.2 164.8 L479.0 165.9 L454.9 174.1 L442.3 177.6 L435.9 180.1 L436.2 182.9 L437.0 184.4 L437.6 185.3 L438.1 187.5 L438.3 189.5 Z"/>
  <path id="malawi" class="country" d="M501.0 138.3 L500.5 138.4 L500.2 138.1 L500.3 137.4 L500.5 136.8 L501.0 136.7 L501.3 136.9 L501.6 137.1 L501.6 137.5 L501.4 137.9 L501.0 138.3 Z M499.9 136.9 L499.6 137.6 L499.0 137.6 L498.4 136.9 L498.6 136.4 L499.2 136.2 L499.6 136.4 L499.9 136.9 Z M479.0 165.9 L478.2 164.8 L476.0 166.0 L474.2 163.0 L473.3 162.7 L472.7 162.2 L473.1 161.2 L471.3 159.7 L473.9 157.8 L475.6 154.4 L476.1 149.7 L475.7 149.2 L475.3 148.3 L475.7 146.8 L476.4 145.8 L479.6 144.7 L481.9 143.8 L483.5 141.7 L481.0 141.1 L479.7 138.3 L480.5 132.2 L479.4 129.9 L479.5 128.2 L481.6 124.4 L479.9 120.6 L480.3 120.0 L481.1 119.4 L481.9 119.3 L482.8 119.0 L485.6 116.2 L485.7 115.7 L485.2 114.7 L484.1 113.3 L483.9 112.7 L483.8 111.1 L480.6 108.2 L481.0 107.0 L481.2 105.6 L480.6 104.9 L479.7 104.2 L479.2 103.0 L478.9 102.2 L476.0 102.2 L474.9 99.0 L475.2 98.9 L475.7 98.9 L478.0 100.3 L479.3 100.4 L480.9 100.7 L482.2 102.0 L486.2 101.8 L489.0 102.9 L489.8 102.9 L489.9 102.7 L490.5 100.3 L491.9 100.9 L495.2 103.8 L498.2 108.1 L499.1 115.3 L499.8 116.7 L500.2 117.9 L499.4 123.3 L501.8 127.1 L503.5 127.9 L504.5 130.5 L499.6 131.2 L499.4 132.2 L498.6 134.3 L495.8 139.1 L497.6 146.3 L498.8 156.4 L499.5 157.5 L500.2 158.2 L502.9 158.7 L503.7 159.2 L505.3 160.5 L508.7 164.2 L517.4 175.4 L517.7 178.2 L518.1 178.6 L517.3 180.7 L516.8 184.1 L517.1 186.3 L517.0 190.1 L516.6 194.1 L516.1 195.6 L510.3 197.0 L507.5 202.8 L509.2 206.4 L509.3 210.6 L509.1 210.9 L508.0 211.1 L506.9 211.1 L506.4 210.8 L506.0 210.4 L505.7 209.5 L506.5 208.8 L506.7 207.7 L506.3 206.8 L505.3 206.6 L504.1 205.7 L496.6 198.3 L496.4 195.9 L494.2 193.1 L494.2 192.2 L494.7 191.4 L495.8 190.4 L498.4 184.5 L498.6 182.2 L498.7 180.4 L497.9 174.4 L496.0 171.9 L495.4 171.6 L485.3 173.9 L479.0 165.9 Z"/>
  <path id="mozambique" class="country focus" d="M451.2 287.6 L467.8 271.6 L466.7 269.2 L468.5 266.5 L468.7 262.3 L469.2 261.6 L471.3 260.2 L476.0 252.5 L476.1 251.7 L476.2 250.9 L472.9 243.9 L473.9 239.8 L471.7 237.4 L471.7 236.3 L472.0 235.7 L474.0 234.8 L474.4 234.3 L476.0 228.9 L475.6 212.9 L474.4 209.8 L474.3 207.5 L475.2 206.0 L475.3 205.0 L472.3 204.5 L470.8 203.3 L468.1 202.2 L465.1 201.2 L460.7 200.9 L457.0 197.8 L454.2 197.3 L453.2 196.9 L450.5 195.0 L438.5 194.4 L438.1 187.5 L436.2 182.9 L435.9 180.1 L479.0 165.9 L485.3 173.9 L496.0 171.9 L497.9 174.4 L498.6 182.2 L498.4 184.5 L494.2 193.1 L496.4 195.9 L496.6 198.3 L504.1 205.7 L505.3 206.6 L506.3 206.8 L506.7 207.7 L506.5 208.8 L505.7 209.5 L506.0 210.4 L506.4 210.8 L506.9 211.1 L508.0 211.1 L509.1 210.9 L509.3 210.6 L509.2 206.4 L507.5 202.8 L510.3 197.0 L516.1 195.6 L516.6 194.1 L517.0 190.1 L517.1 186.3 L516.8 184.1 L517.3 180.7 L518.1 178.6 L517.7 178.2 L517.4 175.4 L508.7 164.2 L505.3 160.5 L503.7 159.2 L502.9 158.7 L500.2 158.2 L499.5 157.5 L498.8 156.4 L497.6 146.3 L495.8 139.1 L498.6 134.3 L499.4 132.2 L499.6 131.2 L500.2 130.7 L502.6 130.5 L513.3 130.9 L516.5 128.7 L518.3 128.8 L524.0 132.4 L527.1 132.5 L529.4 132.1 L530.8 131.0 L532.3 130.4 L533.8 130.4 L539.5 132.5 L542.0 132.0 L544.6 130.6 L547.5 126.4 L548.9 126.3 L551.2 126.2 L553.2 126.7 L555.8 128.2 L557.4 127.2 L560.2 125.5 L567.8 123.9 L577.5 119.6 L584.4 114.4 L585.1 115.9 L586.5 117.2 L585.7 118.0 L584.7 118.7 L586.3 119.7 L585.1 121.1 L585.5 123.1 L583.5 127.0 L584.4 128.7 L583.9 131.7 L585.4 136.7 L584.7 143.8 L585.6 144.3 L586.1 145.9 L585.9 147.7 L585.7 148.6 L584.1 149.8 L584.0 150.2 L584.0 150.9 L585.9 151.0 L586.1 156.6 L585.6 157.9 L586.3 167.5 L588.0 168.8 L588.0 169.9 L586.9 171.3 L586.9 172.2 L587.0 173.5 L588.2 171.8 L588.9 171.8 L589.9 176.1 L589.8 177.2 L588.9 177.9 L587.8 179.2 L587.6 180.4 L587.7 181.1 L587.0 181.4 L586.6 181.9 L587.1 183.0 L587.1 184.0 L585.8 187.1 L579.2 194.4 L577.4 198.0 L575.6 198.4 L574.6 199.0 L575.4 201.0 L566.7 206.2 L565.8 206.9 L564.4 208.8 L558.3 209.9 L550.7 212.7 L541.6 217.5 L533.2 223.6 L532.9 224.9 L532.7 225.6 L530.6 228.2 L527.4 231.2 L525.5 234.9 L524.4 235.2 L523.4 234.2 L523.0 236.2 L522.3 236.4 L521.4 235.9 L519.3 237.0 L517.5 238.1 L514.5 240.6 L510.4 245.4 L504.3 250.0 L503.5 250.2 L503.0 250.1 L501.0 248.5 L500.0 248.4 L500.9 249.4 L501.6 250.2 L500.8 259.6 L504.8 264.4 L506.8 270.1 L507.0 273.0 L509.0 276.7 L509.1 278.3 L509.9 282.3 L509.8 285.5 L509.7 287.5 L510.7 288.4 L511.7 283.4 L512.8 285.4 L512.2 291.3 L512.4 293.0 L513.4 295.7 L510.5 307.9 L510.9 308.4 L511.8 308.6 L512.1 307.7 L512.7 307.7 L513.0 308.2 L512.2 311.7 L511.5 313.3 L508.8 317.0 L507.4 318.6 L505.0 320.2 L481.1 329.1 L475.5 332.4 L473.1 334.6 L470.1 339.9 L473.9 343.7 L475.4 341.0 L474.4 352.1 L463.2 352.0 L463.1 347.3 L462.2 343.9 L462.4 340.1 L461.1 339.4 L460.8 339.2 L460.5 338.1 L460.4 336.5 L461.3 334.5 L461.4 317.5 L458.7 309.2 L455.0 303.3 L454.7 302.5 L454.8 300.3 L451.2 287.6 Z M499.9 136.9 L499.6 136.4 L499.2 136.2 L498.6 136.4 L498.4 136.9 L499.0 137.6 L499.6 137.6 L499.9 136.9 Z M501.0 138.3 L501.4 137.9 L501.6 137.5 L501.6 137.1 L501.3 136.9 L501.0 136.7 L500.5 136.8 L500.3 137.4 L500.2 138.1 L500.5 138.4 L501.0 138.3 Z"/>
  <path id="namibia" class="country" d="M336.5 218.5 L349.5 216.2 L356.1 216.7 L359.0 217.1 L360.0 217.5 L361.3 218.4 L363.8 220.7 L363.1 220.6 L358.7 221.1 L357.0 221.8 L353.2 224.5 L350.7 223.4 L349.0 224.1 L347.4 224.9 L345.5 226.0 L341.1 229.9 L340.4 230.2 L339.7 230.4 L335.3 224.1 L334.6 223.8 L334.2 223.7 L316.6 226.6 L301.6 228.4 L301.5 281.8 L287.1 281.8 L287.2 375.4 L285.7 375.3 L282.7 376.1 L280.8 377.2 L279.9 378.4 L278.8 379.2 L277.5 379.5 L276.9 380.1 L277.0 381.1 L276.5 381.9 L275.3 382.4 L273.3 382.3 L270.6 381.4 L259.9 381.5 L258.1 380.6 L250.4 379.0 L249.0 376.1 L249.5 373.9 L249.1 372.7 L246.9 371.7 L246.7 370.7 L246.1 370.0 L244.7 369.3 L243.0 369.8 L242.1 370.7 L240.4 375.4 L238.5 375.9 L236.5 377.1 L235.9 377.8 L227.8 371.0 L225.3 368.3 L219.9 359.9 L219.1 358.3 L218.0 354.2 L216.8 351.2 L216.7 349.5 L217.3 348.5 L216.9 347.2 L216.3 346.0 L214.4 344.4 L213.9 339.2 L212.7 335.8 L212.5 325.8 L211.5 322.2 L209.5 318.7 L207.7 313.7 L207.3 300.4 L206.5 297.4 L206.2 295.8 L206.8 294.5 L207.1 294.9 L207.6 295.1 L207.9 293.4 L208.0 292.0 L207.1 288.3 L205.1 284.5 L200.0 278.4 L198.8 276.1 L198.1 274.1 L192.4 266.0 L190.0 260.3 L188.3 255.4 L186.5 253.2 L178.0 237.2 L176.1 234.6 L172.8 231.6 L172.0 230.6 L170.7 227.7 L168.1 223.8 L167.5 220.1 L167.3 216.0 L167.6 212.8 L170.0 212.5 L171.6 211.7 L173.0 211.6 L174.5 212.3 L179.3 212.3 L187.4 208.7 L192.8 209.8 L194.0 211.3 L196.0 212.6 L200.6 215.1 L264.2 215.0 L265.5 215.6 L267.0 217.5 L268.9 219.4 L270.4 220.3 L272.3 220.9 L282.2 221.8 L293.2 222.1 L298.3 224.0 L300.6 223.8 L303.6 223.1 L308.0 223.7 L336.5 218.5 Z"/>
  <path id="botswana" class="country focus" d="M363.8 220.7 L363.5 223.3 L373.6 237.3 L373.9 238.0 L373.8 239.4 L375.7 243.6 L376.9 246.0 L384.4 251.2 L391.6 254.2 L392.2 254.9 L392.7 256.1 L393.0 258.3 L393.1 259.7 L395.8 259.6 L398.1 259.8 L398.9 260.0 L399.2 260.4 L398.7 268.2 L399.1 268.9 L401.3 271.0 L403.7 275.3 L411.2 276.7 L418.4 278.8 L418.7 282.0 L419.1 282.5 L419.6 282.7 L421.5 282.9 L422.6 284.1 L423.3 284.6 L419.9 284.9 L418.2 285.8 L417.3 287.5 L415.7 288.7 L409.1 290.4 L406.6 291.8 L403.9 294.4 L402.6 296.1 L402.5 296.8 L400.2 298.4 L400.0 299.1 L399.4 299.5 L398.4 299.4 L396.3 301.6 L394.8 301.8 L393.6 302.4 L390.3 304.7 L388.8 306.5 L388.6 307.4 L386.6 314.3 L380.3 319.7 L373.2 321.6 L368.5 334.1 L367.5 334.9 L366.4 335.7 L360.0 336.2 L358.1 337.1 L356.3 337.2 L350.3 336.1 L348.3 334.5 L343.9 334.0 L342.9 333.2 L340.7 331.6 L338.5 330.3 L336.6 329.5 L334.8 329.2 L333.1 329.5 L331.8 329.8 L331.3 330.0 L330.3 330.7 L329.2 331.9 L325.1 341.7 L319.6 345.4 L317.8 348.2 L313.4 350.1 L312.7 351.5 L312.0 352.0 L303.0 352.2 L301.3 351.7 L300.1 351.5 L298.2 352.1 L297.4 351.7 L296.8 350.6 L296.4 348.2 L296.5 346.2 L299.3 342.2 L299.0 338.6 L293.7 327.4 L292.5 325.7 L287.9 322.5 L287.2 322.1 L287.1 281.8 L301.5 281.8 L301.6 228.4 L316.6 226.6 L334.2 223.7 L334.6 223.8 L335.3 224.1 L339.7 230.4 L340.4 230.2 L341.1 229.9 L345.5 226.0 L347.4 224.9 L349.0 224.1 L350.7 223.4 L353.2 224.5 L357.0 221.8 L358.7 221.1 L363.1 220.6 L363.8 220.7 Z"/>
  <path id="zimbabwe" class="country" d="M451.2 287.6 L445.8 286.0 L442.9 286.1 L439.2 286.5 L435.3 286.0 L431.1 284.4 L427.7 283.9 L423.5 284.6 L423.3 284.6 L422.6 284.1 L421.5 282.9 L418.7 282.0 L418.4 278.8 L403.7 275.3 L398.7 268.2 L399.2 260.4 L398.9 260.0 L398.1 259.8 L395.8 259.6 L393.1 259.7 L393.0 258.3 L392.7 256.1 L392.2 254.9 L391.6 254.2 L384.4 251.2 L376.9 246.0 L375.7 243.6 L373.8 239.4 L373.9 238.0 L373.6 237.3 L363.5 223.3 L363.8 220.7 L366.6 221.5 L368.1 221.5 L369.3 221.2 L370.8 221.7 L372.5 223.0 L374.5 223.3 L376.5 222.4 L379.3 222.7 L382.9 224.1 L385.8 224.3 L389.3 223.1 L402.5 207.7 L414.6 202.4 L415.6 200.9 L416.8 194.5 L422.2 191.5 L425.1 190.3 L428.6 189.5 L438.3 189.5 L438.9 194.6 L450.5 195.0 L453.2 196.9 L454.2 197.3 L457.0 197.8 L460.7 200.9 L465.1 201.2 L468.1 202.2 L470.8 203.3 L472.3 204.5 L475.3 205.0 L475.2 206.0 L474.3 207.5 L474.4 209.8 L475.6 212.9 L475.4 224.9 L476.0 228.9 L474.4 234.3 L474.0 234.8 L472.0 235.7 L471.7 236.3 L471.7 237.4 L473.9 239.8 L472.9 243.9 L476.2 250.9 L476.1 251.7 L476.0 252.5 L471.3 260.2 L469.2 261.6 L468.7 262.3 L468.5 266.5 L466.7 269.2 L467.8 271.6 L451.2 287.6 Z"/>
  <path id="south-africa" class="country sa" d="M423.3 284.6 L423.5 284.6 L427.7 283.9 L431.1 284.4 L435.3 286.0 L439.2 286.5 L442.9 286.1 L445.8 286.0 L451.2 287.6 L454.8 300.3 L454.7 302.5 L455.0 303.3 L458.7 309.2 L461.1 316.2 L461.3 334.5 L460.4 336.5 L460.5 338.1 L460.8 339.2 L460.4 339.4 L459.7 339.5 L456.4 337.9 L453.1 336.1 L450.1 337.5 L444.2 345.8 L444.3 351.2 L445.4 351.3 L446.2 353.1 L448.0 355.9 L451.0 357.8 L453.9 358.6 L457.8 358.8 L461.0 358.8 L461.5 351.7 L466.7 352.3 L474.4 352.1 L469.3 371.7 L467.0 376.1 L465.7 377.8 L462.0 381.0 L458.4 382.4 L451.9 388.8 L436.7 411.9 L432.1 417.0 L425.0 422.1 L419.9 426.9 L415.9 431.1 L401.5 442.2 L390.1 448.9 L383.4 451.6 L380.7 452.4 L374.4 451.7 L371.7 452.1 L369.5 453.7 L369.3 456.0 L368.3 456.4 L360.0 455.5 L358.6 456.7 L357.5 458.3 L354.1 458.4 L348.1 456.8 L341.1 455.8 L334.9 457.1 L324.5 456.0 L322.5 456.7 L320.0 456.9 L313.4 461.3 L310.0 461.3 L307.0 461.8 L301.8 461.2 L295.1 462.6 L293.8 463.3 L287.7 467.3 L282.2 466.8 L278.6 464.7 L277.3 464.8 L277.6 464.2 L277.7 463.0 L274.4 461.0 L270.5 461.2 L270.2 457.5 L269.3 457.1 L265.7 457.5 L265.1 458.3 L265.1 460.9 L264.4 460.2 L263.5 458.6 L263.3 457.0 L263.6 455.0 L265.2 454.3 L265.1 452.9 L264.7 451.8 L262.9 448.8 L262.2 447.5 L258.3 443.6 L256.3 438.9 L256.9 437.8 L257.9 437.1 L259.0 438.1 L260.2 437.7 L262.1 436.3 L263.2 434.2 L263.2 430.8 L262.9 428.6 L261.5 423.1 L253.8 412.6 L249.0 404.3 L246.7 399.3 L243.2 389.2 L240.1 383.5 L236.4 378.1 L235.9 377.8 L240.4 375.4 L242.1 370.7 L243.0 369.8 L244.7 369.3 L246.1 370.0 L246.7 370.7 L246.9 371.7 L249.1 372.7 L249.5 373.9 L249.0 376.1 L250.4 379.0 L259.9 381.5 L270.6 381.4 L273.3 382.3 L275.3 382.4 L276.5 381.9 L277.0 381.1 L276.9 380.1 L279.9 378.4 L280.8 377.2 L282.7 376.1 L285.7 375.3 L287.2 375.4 L287.2 322.1 L287.9 322.5 L292.5 325.7 L293.7 327.4 L299.0 338.6 L299.3 342.2 L296.5 346.2 L297.4 351.7 L312.0 352.0 L312.7 351.5 L313.4 350.1 L317.8 348.2 L319.6 345.4 L325.1 341.7 L329.2 331.9 L331.8 329.8 L333.1 329.5 L334.8 329.2 L336.6 329.5 L343.9 334.0 L348.3 334.5 L350.3 336.1 L356.3 337.2 L366.4 335.7 L367.5 334.9 L368.5 334.1 L373.2 321.6 L380.3 319.7 L386.6 314.3 L388.6 307.4 L388.8 306.5 L390.3 304.7 L393.6 302.4 L394.8 301.8 L396.3 301.6 L398.4 299.4 L399.4 299.5 L400.0 299.1 L406.6 291.8 L409.1 290.4 L415.7 288.7 L417.3 287.5 L418.2 285.8 L419.9 284.9 L423.3 284.6 Z M414.2 399.3 L416.6 398.4 L419.5 396.7 L419.8 395.0 L420.1 393.5 L422.3 391.6 L423.1 389.7 L423.7 388.0 L423.7 387.2 L422.4 384.6 L421.8 384.5 L420.6 383.9 L418.9 382.7 L417.4 381.6 L412.6 377.3 L406.9 379.0 L404.8 380.1 L402.9 381.5 L401.1 382.0 L399.7 382.5 L393.3 390.9 L389.8 392.4 L389.8 393.0 L390.4 394.3 L390.9 395.5 L394.2 400.1 L394.1 401.4 L394.3 401.9 L394.7 402.4 L396.2 403.1 L398.7 405.7 L399.9 406.5 L402.1 406.9 L403.8 407.2 L404.4 407.0 L404.9 406.3 L405.4 405.5 L405.5 404.4 L409.2 400.0 L414.2 399.3 Z"/>
  <path id="lesotho" class="country enclave" d="M414.2 399.3 L409.2 400.0 L405.5 404.4 L405.4 405.5 L404.9 406.3 L404.4 407.0 L403.8 407.2 L402.1 406.9 L399.9 406.5 L398.7 405.7 L396.2 403.1 L394.7 402.4 L394.3 401.9 L394.1 401.4 L394.2 400.1 L390.9 395.5 L390.4 394.3 L389.8 393.0 L389.8 392.4 L393.3 390.9 L399.7 382.5 L401.1 382.0 L402.9 381.5 L404.8 380.1 L406.9 379.0 L412.6 377.3 L417.4 381.6 L418.9 382.7 L420.6 383.9 L421.8 384.5 L422.4 384.6 L423.7 387.2 L423.7 388.0 L423.1 389.7 L422.3 391.6 L420.1 393.5 L419.8 395.0 L419.5 396.7 L416.6 398.4 L414.2 399.3 Z"/>
  <path id="eswatini" class="country enclave" d="M460.8 339.2 L461.1 339.4 L462.4 340.1 L463.2 352.0 L461.5 351.7 L461.0 358.8 L457.8 358.8 L453.9 358.6 L451.0 357.8 L448.0 355.9 L446.2 353.1 L445.4 351.3 L444.3 351.2 L444.1 350.9 L444.0 348.7 L444.0 346.4 L448.3 339.5 L452.6 336.1 L460.8 339.2 Z"/>
</svg>
