<svg width="252" height="61" viewBox="0 0 252 61" fill="none" xmlns="http://www.w3.org/2000/svg">
<path fill-rule="evenodd" clip-rule="evenodd" d="M42.0398 54.9255C42.8536 54.9255 43.5128 55.5864 43.5128 56.4036C43.5128 57.2196 42.8536 57.8827 42.0398 57.8827C41.2271 57.8827 40.5678 57.2196 40.5678 56.4036C40.5678 55.5864 41.2271 54.9255 42.0398 54.9255ZM49.1594 24.2791C59.5712 19.049 48.9362 7.506 66.6358 14.4416C66.6358 14.4416 80.9195 30.9395 49.5605 30.3635C49.5605 30.3635 45.9827 28.7271 52.5775 25.6074C59.5045 22.3834 59.4579 22.6905 62.4368 20.186C62.4368 20.186 60.1839 21.901 53.0484 24.855C41.3287 29.8652 43.3499 42.3571 43.3499 53.0542C44.679 53.5802 45.6208 54.8819 45.6208 56.4036C45.6208 58.3906 44.0176 60.0004 42.0398 60.0004C40.0631 60.0004 38.4609 58.3906 38.4609 56.4036C38.4609 54.8819 39.4017 53.5802 40.7308 53.0542C40.7308 43.4983 39.1668 29.2988 49.1594 24.2791Z" fill="white"/>
<path fill-rule="evenodd" clip-rule="evenodd" d="M35.4753 46.0519C34.5969 46.0519 33.8869 46.733 33.8869 47.5756C33.8869 48.4172 34.5969 49.1005 35.4753 49.1005C36.3525 49.1005 37.0647 48.4172 37.0647 47.5756C37.0647 46.733 36.3525 46.0519 35.4753 46.0519ZM27.7884 14.4576C15.837 6.56361 18.7725 -3.74359 5.36071 3.40663C5.36071 3.40663 -9.5844 23.6024 23.5577 21.4134C23.5577 21.4134 29.6212 17.7379 22.8751 15.1165C19.1957 13.1592 17.2772 13.003 13.455 10.2381C13.455 10.2381 17.6857 12.2751 23.5905 15.0516C36.2425 20.2169 34.0615 33.0945 34.0615 44.1232C32.6255 44.6652 31.6096 46.0072 31.6096 47.5756C31.6096 49.6243 33.3398 51.2841 35.4753 51.2841C37.6097 51.2841 39.3409 49.6243 39.3409 47.5756C39.3409 46.0072 38.324 44.6652 36.888 44.1232C36.888 34.2719 38.5769 19.6325 27.7884 14.4576Z" fill="white"/>
<path d="M61.1583 37.5245C60.679 42.1436 58.807 46.3461 55.9752 49.7018C53.1054 53.0989 49.2461 55.6301 44.8418 56.8457L44.3815 55.1498C48.4355 54.0319 51.99 51.6974 54.6366 48.5627C57.2493 45.4706 58.9731 41.5985 59.4165 37.3449L61.1583 37.5245ZM37.465 12.7256C37.6756 12.7117 37.9137 12.7011 38.1814 12.6926C38.4841 12.683 38.7232 12.6777 38.8999 12.6777C42.409 12.6777 45.7317 13.4906 48.6916 14.9379C51.7593 16.4404 54.4366 18.6293 56.5266 21.3092L55.1477 22.392C53.226 19.9289 50.7561 17.9121 47.9233 16.5243C45.1984 15.1908 42.136 14.4427 38.8999 14.4427C38.6153 14.4427 38.3941 14.4448 38.2364 14.4501C38.0428 14.4555 37.8216 14.4671 37.5751 14.482L37.465 12.7256ZM30.7306 56.104C26.5094 54.441 22.9136 51.5263 20.395 47.8157C17.9484 44.2093 16.5156 39.8537 16.5156 35.1644C16.5156 32.2157 17.0839 29.3956 18.1156 26.8082C19.1855 24.1262 20.7538 21.6981 22.7072 19.6431L23.976 20.8576C22.1749 22.7522 20.7273 24.9911 19.7421 27.4627C18.795 29.8397 18.2733 32.4378 18.2733 35.1644C18.2733 39.4903 19.5897 43.5037 21.8437 46.8243C24.1644 50.2448 27.4787 52.9311 31.3687 54.4644L30.7306 56.104Z" fill="white"/>
<path fill-rule="evenodd" clip-rule="evenodd" d="M33.5574 57.8827C34.3722 57.8827 35.0304 57.2196 35.0304 56.4035C35.0304 55.5864 34.3722 54.9255 33.5574 54.9255C32.7457 54.9255 32.0865 55.5864 32.0865 56.4035C32.0865 57.2196 32.7457 57.8827 33.5574 57.8827ZM33.5574 60.0004C35.5362 60.0004 37.1384 58.3906 37.1384 56.4035C37.1384 54.4175 35.5362 52.8066 33.5574 52.8066C31.5817 52.8066 29.9785 54.4175 29.9785 56.4035C29.9785 58.3906 31.5817 60.0004 33.5574 60.0004Z" fill="white"/>
<path fill-rule="evenodd" clip-rule="evenodd" d="M60.3954 36.4636C61.2081 36.4636 61.8663 35.8016 61.8663 34.9856C61.8663 34.1695 61.2081 33.5075 60.3954 33.5075C59.5827 33.5075 58.9224 34.1695 58.9224 34.9856C58.9224 35.8016 59.5827 36.4636 60.3954 36.4636ZM60.3954 38.5825C62.3722 38.5825 63.9754 36.9726 63.9754 34.9856C63.9754 32.9996 62.3722 31.3887 60.3954 31.3887C58.4176 31.3887 56.8145 32.9996 56.8145 34.9856C56.8145 36.9726 58.4176 38.5825 60.3954 38.5825Z" fill="white"/>
<path fill-rule="evenodd" clip-rule="evenodd" d="M34.999 15.3797C35.8106 15.3797 36.4699 14.7177 36.4699 13.9016C36.4699 13.0855 35.8106 12.4235 34.999 12.4235C34.1852 12.4235 33.5259 13.0855 33.5259 13.9016C33.5259 14.7177 34.1852 15.3797 34.999 15.3797ZM34.999 17.4985C36.9757 17.4985 38.5789 15.8886 38.5789 13.9016C38.5789 11.9156 36.9757 10.3047 34.999 10.3047C33.0212 10.3047 31.418 11.9156 31.418 13.9016C31.418 15.8886 33.0212 17.4985 34.999 17.4985Z" fill="white"/>
<path fill-rule="evenodd" clip-rule="evenodd" d="M26.9715 13.5369C27.0011 7.91786 19.7608 9.9878 26.5694 3.87467C26.5694 3.87467 39.0806 2.25528 29.5207 13.9821C27.9323 13.8801 28.0635 13.7547 28.2815 12.3553C28.6974 8.54479 28.5313 8.75731 28.1091 6.9307C28.1091 6.9307 28.5736 9.21104 28.0625 11.9876C27.8477 17.6683 29.2138 15.0011 29.4308 16.8564C29.4604 17.1104 28.0752 17.1401 28.0307 17.29C26.8815 14.8067 27.1672 15.0575 26.9715 13.5369Z" fill="white"/>
<path fill-rule="evenodd" clip-rule="evenodd" d="M46.7863 25.6599C46.762 21.0886 52.852 22.7728 47.1249 17.7999C47.1249 17.7999 36.601 16.4833 44.6424 26.0223C45.9778 25.9383 45.8678 25.8374 45.6847 24.6983C45.3344 21.5987 45.4741 21.7719 45.8297 20.2864C45.8297 20.2864 45.4382 22.1406 45.8688 24.3997C46.0487 29.0199 44.8995 26.8511 44.7175 28.36C44.6932 28.5661 45.8572 28.5906 45.8953 28.7128C46.8614 26.6917 46.6223 26.8957 46.7863 25.6599Z" fill="white"/>
<path d="M99.0775 35.9232C99.0775 37.8287 98.4078 39.3543 97.0716 40.5003C95.7388 41.6479 93.8096 42.22 91.2873 42.22C88.9582 42.22 87.1573 41.7449 85.8828 40.7947L86.5292 38.4259C87.3056 38.814 88.0886 39.1285 88.8749 39.3694C89.6613 39.607 90.5509 39.7241 91.5472 39.7241C92.9683 39.7241 94.1528 39.3794 95.0991 38.6869C96.0487 37.9909 96.5252 37.0591 96.5252 35.8898C96.5252 34.8291 96.1404 33.9475 95.3723 33.2466C94.6076 32.5423 93.3865 31.8447 91.7071 31.1521C89.8312 30.5013 88.3968 29.6666 87.4022 28.6494C86.4109 27.6323 85.9161 26.3442 85.9161 24.7817C85.9161 23.6357 86.211 22.6069 86.8024 21.6968C87.3972 20.7868 88.2319 20.0741 89.3081 19.5555C90.3877 19.0386 91.6172 18.7793 93 18.7793C94.6826 18.7793 96.3319 19.2126 97.9446 20.0775L96.9784 22.3459C95.8588 21.548 94.456 21.1916 92.7734 21.2753C91.6088 21.3204 90.6042 21.6567 89.7613 22.2857C88.9216 22.9114 88.5018 23.711 88.5018 24.688C88.5018 26.3341 89.7513 27.6775 92.2536 28.7163C93.613 29.3019 94.7659 29.8807 95.7122 30.4562C96.6618 31.0283 97.4598 31.7644 98.1046 32.6644C98.7526 33.5611 99.0775 34.6485 99.0775 35.9232Z" fill="white" stroke="white" stroke-width="1.75311"/>
<path d="M107.844 41.8584H105.225V19.127H111.242C113.783 19.127 115.82 19.7075 117.353 20.8668C118.886 22.0228 119.652 23.781 119.652 26.1398C119.652 28.4383 118.922 30.2049 117.466 31.4395C116.009 32.6708 113.976 33.2864 111.369 33.2864H107.844V41.8584ZM111.276 30.8841C113.323 30.8841 114.821 30.4626 115.767 29.6194C116.717 28.7729 117.193 27.6236 117.193 26.1732C117.193 25.0055 116.788 23.9499 115.98 23.0081C115.171 22.0679 113.581 21.5962 111.209 21.5962H107.844V30.8841H111.276Z" fill="white" stroke="white" stroke-width="1.75311"/>
<path d="M140.019 41.8584H125.205V19.127H139.726V21.7233H127.791V27.7658H139.08V30.1681H127.791V39.3223H140.019V41.8584Z" fill="white" stroke="white" stroke-width="1.75311"/>
<path d="M146.744 41.8584V19.127H149.363V29.2915L156.833 19.127H159.939L151.722 30.1012L160.652 41.8584H157.32L149.363 31.2053V41.8584H146.744Z" fill="white" stroke="white" stroke-width="1.75311"/>
<path d="M163.85 19.127H181.089V21.4623H173.712V41.8584H171.193V21.4623H163.85V19.127Z" fill="white" stroke="white" stroke-width="1.75311"/>
<path d="M201.011 41.8584H186.197V19.127H200.718V21.7233H188.783V27.7658H200.072V30.1681H188.783V39.3223H201.011V41.8584Z" fill="white" stroke="white" stroke-width="1.75311"/>
<path d="M217.632 39.6237C218.818 39.6237 220.061 39.4029 221.364 38.9612C222.67 38.5162 223.636 37.7952 224.263 36.7998L226.169 38.2921C225.132 39.6571 223.878 40.6542 222.403 41.2832C220.927 41.9072 219.338 42.22 217.632 42.22C215.561 42.1565 213.722 41.683 212.114 40.7947C210.51 39.9081 209.25 38.5764 208.336 36.7998C207.419 35.0249 206.963 32.8484 206.963 30.2688C206.963 28.0204 207.443 26.0246 208.402 24.2798C209.362 22.5366 210.676 21.1849 212.347 20.2247C214.017 19.2611 215.876 18.7793 217.925 18.7793C219.498 18.7793 220.897 19.0453 222.123 19.5756C223.353 20.1026 224.476 20.8855 225.489 21.9244L223.809 23.5504C223.053 22.7708 222.152 22.2021 221.104 21.8441C220.059 21.4877 218.966 21.3087 217.825 21.3087C216.016 21.3087 214.493 21.7487 213.254 22.627C212.014 23.5019 211.096 24.6328 210.501 26.0196C209.91 27.4031 209.615 28.8535 209.615 30.3692C209.615 33.1847 210.315 35.4314 211.714 37.1076C213.114 38.7856 215.086 39.6237 217.632 39.6237Z" fill="white" stroke="white" stroke-width="1.75311"/>
<path d="M231.988 41.7915V19.127H234.547V26.7286H247.449V19.127H250.001V41.7915H247.449V29.0975H234.547V41.7915H231.988Z" fill="white" stroke="white" stroke-width="2.62966"/>
</svg>
