<svg width="44" height="38" viewBox="0 0 44 38" fill="none" xmlns="http://www.w3.org/2000/svg">
<path fill-rule="evenodd" clip-rule="evenodd" d="M25.9526 34.7321C26.48 34.7321 26.9074 35.1578 26.9074 35.6841C26.9074 36.2097 26.48 36.6367 25.9526 36.6367C25.4258 36.6367 24.9985 36.2097 24.9985 35.6841C24.9985 35.1578 25.4258 34.7321 25.9526 34.7321ZM30.5674 14.9938C37.3161 11.6252 30.4227 4.19074 41.8952 8.65772C41.8952 8.65772 51.1537 19.2835 30.8273 18.9125C30.8273 18.9125 28.5083 17.8586 32.7829 15.8492C37.2729 13.7728 37.2427 13.9706 39.1735 12.3575C39.1735 12.3575 37.7132 13.4621 33.0881 15.3647C25.4916 18.5916 26.8017 26.6372 26.8017 33.5269C27.6632 33.8657 28.2737 34.704 28.2737 35.6841C28.2737 36.9639 27.2345 38.0007 25.9526 38.0007C24.6713 38.0007 23.6328 36.9639 23.6328 35.6841C23.6328 34.704 24.2426 33.8657 25.1041 33.5269C25.1041 27.3722 24.0903 18.2268 30.5674 14.9938Z" fill="#5F7F38"/>
<path fill-rule="evenodd" clip-rule="evenodd" d="M21.698 29.0164C21.1287 29.0164 20.6685 29.4551 20.6685 29.9979C20.6685 30.5399 21.1287 30.9799 21.698 30.9799C22.2667 30.9799 22.7283 30.5399 22.7283 29.9979C22.7283 29.4551 22.2667 29.0164 21.698 29.0164ZM16.7156 8.66764C8.96888 3.58334 10.8716 -3.05519 2.17835 1.55003C2.17835 1.55003 -7.50879 14.5575 13.9733 13.1476C13.9733 13.1476 17.9036 10.7803 13.5309 9.09195C11.146 7.83132 9.9024 7.73071 7.42489 5.94994C7.42489 5.94994 10.1672 7.26191 13.9946 9.05021C22.1953 12.377 20.7817 20.6711 20.7817 27.7743C19.8509 28.1233 19.1924 28.9877 19.1924 29.9979C19.1924 31.3174 20.3139 32.3864 21.698 32.3864C23.0815 32.3864 24.2037 31.3174 24.2037 29.9979C24.2037 28.9877 23.5445 28.1233 22.6137 27.7743C22.6137 21.4294 23.7084 12.0006 16.7156 8.66764Z" fill="#5F7F38"/>
<path d="M38.3467 23.5245C38.036 26.4995 36.8226 29.2062 34.9871 31.3675C33.1269 33.5555 30.6254 35.1857 27.7706 35.9686L27.4723 34.8763C30.1 34.1564 32.404 32.6528 34.1195 30.6338C35.813 28.6423 36.9303 26.1484 37.2177 23.4088L38.3467 23.5245ZM22.9892 7.55228C23.1257 7.54338 23.28 7.53654 23.4535 7.53107C23.6497 7.52491 23.8047 7.52148 23.9193 7.52148C26.1937 7.52148 28.3475 8.04504 30.266 8.97717C32.2545 9.94489 33.9898 11.3547 35.3445 13.0807L34.4507 13.7781C33.2051 12.1917 31.6042 10.8928 29.768 9.99896C28.0018 9.14005 26.0168 8.65825 23.9193 8.65825C23.7347 8.65825 23.5914 8.65962 23.4892 8.66304C23.3637 8.66646 23.2203 8.67399 23.0605 8.68357L22.9892 7.55228ZM18.624 35.4909C15.8879 34.4199 13.5572 32.5426 11.9247 30.1527C10.3389 27.8299 9.41016 25.0246 9.41016 22.0044C9.41016 20.1053 9.77849 18.2889 10.4473 16.6224C11.1407 14.895 12.1572 13.3312 13.4234 12.0076L14.2458 12.7899C13.0784 14.0101 12.1401 15.4521 11.5015 17.044C10.8876 18.575 10.5495 20.2483 10.5495 22.0044C10.5495 24.7906 11.4027 27.3755 12.8637 29.5142C14.3679 31.7172 16.5162 33.4474 19.0376 34.4349L18.624 35.4909Z" fill="#5F7F38"/>
<path fill-rule="evenodd" clip-rule="evenodd" d="M20.4565 36.6365C20.9846 36.6365 21.4113 36.2094 21.4113 35.6838C21.4113 35.1575 20.9846 34.7319 20.4565 34.7319C19.9304 34.7319 19.5031 35.1575 19.5031 35.6838C19.5031 36.2094 19.9304 36.6365 20.4565 36.6365ZM20.4565 38.0005C21.7391 38.0005 22.7776 36.9636 22.7776 35.6838C22.7776 34.4047 21.7391 33.3672 20.4565 33.3672C19.1759 33.3672 18.1367 34.4047 18.1367 35.6838C18.1367 36.9636 19.1759 38.0005 20.4565 38.0005Z" fill="#5F7F38"/>
<path fill-rule="evenodd" clip-rule="evenodd" d="M37.8524 22.8409C38.3792 22.8409 38.8058 22.4145 38.8058 21.8889C38.8058 21.3633 38.3792 20.9369 37.8524 20.9369C37.3256 20.9369 36.8976 21.3633 36.8976 21.8889C36.8976 22.4145 37.3256 22.8409 37.8524 22.8409ZM37.8524 24.2056C39.1337 24.2056 40.1728 23.1687 40.1728 21.8889C40.1728 20.6098 39.1337 19.5723 37.8524 19.5723C36.5704 19.5723 35.5312 20.6098 35.5312 21.8889C35.5312 23.1687 36.5704 24.2056 37.8524 24.2056Z" fill="#5F7F38"/>
<path fill-rule="evenodd" clip-rule="evenodd" d="M21.3875 9.26081C21.9136 9.26081 22.341 8.83444 22.341 8.30883C22.341 7.78322 21.9136 7.35685 21.3875 7.35685C20.8601 7.35685 20.4327 7.78322 20.4327 8.30883C20.4327 8.83444 20.8601 9.26081 21.3875 9.26081ZM21.3875 10.6255C22.6688 10.6255 23.708 9.58863 23.708 8.30883C23.708 7.02971 22.6688 5.99219 21.3875 5.99219C20.1056 5.99219 19.0664 7.02971 19.0664 8.30883C19.0664 9.58863 20.1056 10.6255 21.3875 10.6255Z" fill="#5F7F38"/>
<path fill-rule="evenodd" clip-rule="evenodd" d="M16.1878 8.0747C16.207 4.45567 11.514 5.78885 15.9272 1.85158C15.9272 1.85158 24.0367 0.808582 17.8402 8.36145C16.8106 8.29575 16.8957 8.215 17.037 7.31366C17.3065 4.85946 17.1989 4.99633 16.9252 3.81988C16.9252 3.81988 17.2263 5.28857 16.895 7.07686C16.7558 10.7356 17.6413 9.01778 17.7819 10.2127C17.8011 10.3763 16.9032 10.3954 16.8744 10.4919C16.1295 8.89254 16.3147 9.05405 16.1878 8.0747Z" fill="#5F7F38"/>
<path fill-rule="evenodd" clip-rule="evenodd" d="M29.0315 15.8833C29.0157 12.9391 32.9631 14.0239 29.251 10.8209C29.251 10.8209 22.4296 9.97298 27.6418 16.1167C28.5074 16.0626 28.4361 15.9976 28.3174 15.264C28.0904 13.2676 28.181 13.3792 28.4114 12.4224C28.4114 12.4224 28.1576 13.6166 28.4368 15.0716C28.5534 18.0474 27.8085 16.6505 27.6905 17.6223C27.6747 17.7551 28.4293 17.7709 28.4539 17.8496C29.0802 16.5479 28.9252 16.6793 29.0315 15.8833Z" fill="#5F7F38"/>
</svg>
